<?xml version="1.0" encoding="utf-8"?>
<!-- Generator: Adobe Illustrator 26.0.1, SVG Export Plug-In . SVG Version: 6.00 Build 0)  -->
<svg version="1.1" id="Layer_1" xmlns="http://www.w3.org/2000/svg" xmlns:xlink="http://www.w3.org/1999/xlink" x="0px" y="0px"
	 viewBox="0 0 1600 1200" style="enable-background:new 0 0 1600 1200;" xml:space="preserve">
<style type="text/css">
	.st0{fill:#F4F4F4;}
	.st1{fill:#B2B6BB;}
	.st2{fill:#DADDDF;}
	.st3{fill:#4D61FC;}
	.st4{opacity:0.15;enable-background:new    ;}
	.st5{fill:#3F4249;}
	.st6{opacity:0.2;fill:#FFFFFF;enable-background:new    ;}
	.st7{fill:#FFAD4C;}
	.st8{opacity:0.45;fill:#FFAD4C;}
	.st9{opacity:0.2;enable-background:new    ;}
	.st10{fill:#61656D;}
	.st11{fill:#21252B;}
	.st12{fill:#868A91;}
	.st13{fill:#DDA128;}
	.st14{fill:#FFFFFF;}
	.st15{fill:none;stroke:#3F4249;stroke-width:5;stroke-linecap:round;stroke-linejoin:round;}
	.st16{fill:#956363;}
	.st17{opacity:0.3;}
	.st18{opacity:0.3;enable-background:new    ;}
	.st19{opacity:0.15;}
	.st20{fill:none;stroke:#868A91;stroke-width:5;stroke-linecap:round;stroke-linejoin:round;}
	.st21{fill:#B1B5BA;}
</style>
<path class="st0" d="M257,1029l-95.7-491.1c-2.8-14.2-1.5-28.9,3.6-42.4c5.1-13.5,14-25.3,25.5-34.1l302.5-230.2
	c11.4-8.6,24.7-14.2,38.9-16.2l324.8-45.3c13.4-1.9,27-0.4,39.7,4.2l378.9,136.9c11,4,21,10.2,29.5,18.3c8.4,8.1,15,17.9,19.4,28.8
	l120.3,298.6c4.8,11.8,5,24.9,0.8,36.8l-119.4,336.1H257"/>
<path class="st1" d="M222.7,899.7h55.8V669h-55.8V899.7z"/>
<path class="st2" d="M278.5,899.7h147.4V669H278.5V899.7z"/>
<path class="st1" d="M425.9,758.9v-11.2H278.5v11.2H425.9z"/>
<path class="st1" d="M278.5,758.9v-11.2h-55.8v11.2H278.5z"/>
<path class="st1" d="M318.4,646.6c0,0-45.2-20.5-76.7-12.7l6.3,4.2l-3.2,7.4c0,0,35-9.1,74.5,2.3L318.4,646.6z"/>
<path class="st2" d="M326.1,645.8c0,0,5.9-0.7,14.6-1.9c23.2-3.2,66.8-9.9,74.6-16.1c12.3-9.7-16.8-51-29.4-56.8
	S326.1,645.8,326.1,645.8z"/>
<path class="st2" d="M234,594.4c-2.1,10.2,93,54.4,93,54.4s-1.7-4.7-4.5-12c-10.3-26.8-35-88.8-43.2-88c-1,0.1-1.9,0.4-2.8,0.8
	C263.9,555.2,235.9,585,234,594.4z"/>
<path class="st1" d="M277.2,558.8c5.8,10.1,44.6,77,45.2,78c-10.3-26.8-35-88.8-43.2-88c-1,0-2,0.3-2.8,0.8
	C274.9,550.8,274,553.2,277.2,558.8z"/>
<path class="st1" d="M340.7,643.9c23.2-3.2,66.8-9.9,74.6-16.1c3.5-9.9-5.6-10.8-12.3-11.5S340.7,643.9,340.7,643.9z"/>
<path class="st1" d="M343.8,649c0,0-5.3-12.1-15.8-12.8c-11-0.7-17.2,12.8-17.2,12.8H343.8z"/>
<path class="st1" d="M276.1,671.1h154.2V649H276.1V671.1z"/>
<path class="st1" d="M218,671.1h58.1V649H218V671.1z"/>
<path class="st1" d="M338.5,647.2c0,0,30.2-9.6,50.6-3.2c23.5,7.3,22.1,36.3,22.1,36.3l-5.5-2.2l-7.4,3.5c0,0-1.3-30.7-20.4-35
	C361.2,642.8,338.5,647.2,338.5,647.2z"/>
<path class="st1" d="M353.9,901.1h11.2V669h-11.2V901.1z"/>
<path class="st1" d="M188.7,1030.4h232.8l1.4-151.7l-232.8-2.8L188.7,1030.4z"/>
<path class="st2" d="M269.4,1030.4h193.3l1.4-151.1l-193.3-2.8L269.4,1030.4z"/>
<path class="st1" d="M468.5,875.9H183.4v17.6h285.1V875.9z"/>
<path class="st1" d="M282.9,875.9h-99.5v17.6h99.5V875.9z"/>
<path class="st1" d="M1108.2,1029.9H1297l1.2-163.6l-188.9-2.2L1108.2,1029.9z"/>
<path class="st2" d="M1173.7,1029.9h156.8l1.2-163.2l-156.8-2.2L1173.7,1029.9z"/>
<path class="st1" d="M1335.2,864.1h-231.3v14.3h231.3V864.1z"/>
<path class="st1" d="M1184.6,864.1h-80.7v14.3h80.7V864.1z"/>
<path class="st1" d="M1213.3,862.8c0,0-36.7-16.6-62.2-10.3l5.1,3.4l-2.6,6c20-4.3,40.7-3.7,60.4,1.9L1213.3,862.8z"/>
<path class="st2" d="M1219.5,862.1c0,0,4.8-0.6,11.9-1.6c18.8-2.6,54.2-8,60.5-13c10-7.9-13.6-41.4-23.9-46
	C1257.8,797,1219.5,862.1,1219.5,862.1z"/>
<path class="st2" d="M1144.8,820.4c-1.7,8.3,75.4,44.2,75.4,44.2s-1.4-3.8-3.7-9.7c-8.3-21.7-28.4-72.1-35-71.4
	c-0.8,0.1-1.6,0.3-2.3,0.7C1169.1,788.6,1146.4,812.8,1144.8,820.4z"/>
<path class="st1" d="M1179.9,791.5c4.7,8.2,36.2,62.5,36.7,63.3c-8.3-21.7-28.4-72.1-35-71.4c-0.8,0-1.6,0.2-2.3,0.7
	C1178,785,1177.3,787,1179.9,791.5z"/>
<path class="st1" d="M1231.4,860.6c18.8-2.6,54.2-8,60.5-13c2.9-8.1-4.6-8.7-10-9.3C1276.5,837.7,1231.4,860.6,1231.4,860.6z"/>
<path class="st1" d="M1233.9,864.7c0,0-4.3-9.8-12.8-10.4c-8.9-0.6-13.9,10.4-13.9,10.4H1233.9z"/>
<path class="st1" d="M1229.6,863.3c0,0,24.5-7.8,41-2.6c19.1,5.9,17.9,29.4,17.9,29.4l-4.5-1.8l-6,2.8c0,0-1-24.9-16.6-28.4
	C1248,859.7,1229.6,863.3,1229.6,863.3z"/>
<path class="st1" d="M1257.3,878.3h-10.2v152.1h10.2V878.3z"/>
<path class="st1" d="M1331,959.5v-10.2h-157.6v10.2H1331z"/>
<path class="st1" d="M381.9,893.5H369v136.3h12.9V893.5z"/>
<path class="st1" d="M464.1,968.1v-12.9H270v12.9H464.1z"/>
<path class="st3" d="M1036.4,817.8h-73.7v212.4h73.7V817.8z"/>
<path class="st3" d="M962.7,817.8H767.9v212.4h194.8V817.8z"/>
<path class="st4" d="M962.7,817.8H767.9v212.4h194.8V817.8z"/>
<path class="st5" d="M1042.7,817.8h-76.8V847h76.8V817.8z"/>
<path class="st6" d="M1042.7,817.8h-76.8V847h76.8V817.8z"/>
<path class="st5" d="M758.6,847h207.2v-29.2H758.6V847z"/>
<path class="st7" d="M1036.4,848.2h-73.7v181.9h73.7V848.2z"/>
<path class="st7" d="M962.7,848.2H767.9v181.9h194.8V848.2z"/>
<path class="st8" d="M973.1,479.6H762v338.2h211.1V479.6z"/>
<g class="st9">
	<path class="st9" d="M863,488.3h-32.3L645.3,673.7V706L863,488.3z"/>
	<path class="st9" d="M645.3,540.8v32.3l84.9-84.8h-32.3L645.3,540.8z"/>
	<path class="st9" d="M974.4,610.3L758.2,826.5h5.1h27.2l183.8-183.9V610.3z"/>
	<path class="st9" d="M796.6,488.3h-32.3l-119,118.9v32.3L796.6,488.3z"/>
	<path class="st9" d="M974.4,488.3h-10.9L645.3,806.5v20h12.4l316.7-316.7V488.3z"/>
	<path class="st9" d="M929.4,488.3h-32.3L645.3,740.1v32.3L929.4,488.3z"/>
	<path class="st9" d="M663.7,488.3h-18.4v18.4L663.7,488.3z"/>
	<path class="st9" d="M957.5,826.5h16.9v-16.9L957.5,826.5z"/>
	<path class="st9" d="M974.4,576.2v-32.3L691.8,826.5h32.3L974.4,576.2z"/>
	<path class="st9" d="M974.4,775.5v-32.3l-83.3,83.3h32.3L974.4,775.5z"/>
	<path class="st9" d="M974.4,709v-32.3L824.6,826.5H857L974.4,709z"/>
</g>
<path class="st5" d="M880.4,479.6h-30.8v338.2h30.8V479.6z"/>
<path class="st8" d="M644,817.8h118V479.6H644V817.8z"/>
<path class="st5" d="M834.3,470.3c0,0,72.3-46.3,128.2-40.7l-9.7,8.8l7.2,11.9c0,0-62.3-7-127,22.3L834.3,470.3z"/>
<path class="st10" d="M829.3,474.1c0,0-10.2-1.2-25.3-3.3c-40.2-5.5-115.5-17.1-129.1-27.8c-21.2-16.8,29.1-88.3,50.9-98.2
	C747.6,334.8,829.3,474.1,829.3,474.1z"/>
<path class="st10" d="M988.6,385.1c3.6,17.7-160.9,94.2-160.9,94.2s3-8.1,7.9-20.8c17.8-46.3,60.6-153.7,74.7-152.2
	c1.7,0.2,3.4,0.7,4.9,1.5C936.9,317.3,985.3,368.8,988.6,385.1z"/>
<path class="st5" d="M913.9,323.5c-10,17.5-77.2,133.2-78.2,135c17.8-46.3,60.6-153.7,74.7-152.2c1.7,0,3.5,0.5,4.9,1.5
	C917.8,309.6,919.4,313.9,913.9,323.5z"/>
<path class="st5" d="M804,470.8c-40.2-5.5-115.5-17.1-129.1-27.8c-6.1-17.2,9.7-18.6,21.3-19.8C707.7,421.9,804,470.8,804,470.8z"/>
<path class="st5" d="M798.6,479.6c0,0,9.2-21,27.4-22.1c19-1.2,29.7,22.1,29.7,22.1H798.6z"/>
<path class="st5" d="M807.9,476.5c0,0-52.3-16.6-87.5-5.6c-40.6,12.6-38.2,62.8-38.2,62.8l9.6-3.9l12.9,6c0,0,2.2-53.1,35.3-60.5
	C768.6,468.8,807.9,476.5,807.9,476.5z"/>
<path class="st11" d="M694.5,687.6c-0.7,0-1.5-0.1-2.1-0.4c-0.7-0.3-1.3-0.7-1.8-1.2c-0.5-0.5-0.9-1.1-1.2-1.8
	c-0.3-0.7-0.4-1.4-0.4-2.1v-48c0-17.4-6.9-34-19.2-46.3c-12.3-12.3-28.9-19.2-46.3-19.2c-17.4,0-34,6.9-46.3,19.2
	c-12.3,12.3-19.2,28.9-19.2,46.3v48c0,1.5-0.6,2.9-1.6,3.9c-1,1-2.5,1.6-3.9,1.6c-1.5,0-2.9-0.6-3.9-1.6c-1-1-1.6-2.5-1.6-3.9v-48
	c0-10.1,2-20,5.8-29.3c3.9-9.3,9.5-17.7,16.6-24.9c7.1-7.1,15.6-12.8,24.9-16.6c9.3-3.9,19.3-5.8,29.3-5.8c10.1,0,20,2,29.3,5.8
	c9.3,3.9,17.7,9.5,24.9,16.6c7.1,7.1,12.8,15.6,16.6,24.9c3.9,9.3,5.8,19.3,5.8,29.3v48c0,1.5-0.6,2.9-1.6,4
	C697.4,687,696,687.6,694.5,687.6z"/>
<path class="st5" d="M712.2,659.4H446.6l-25.5,371h265.6L712.2,659.4z"/>
<path class="st10" d="M757.6,659.4h-45.4l-25.5,371h100.9L757.6,659.4z"/>
<path class="st12" d="M686.8,1030.4l50.5-32.4l50.4,32.4H686.8z"/>
<path class="st5" d="M737.3,998V659.4h20.3l30.1,371L737.3,998z"/>
<path class="st13" d="M522.7,818.4c-2.8-0.6-5.6-1.5-8.2-2.8c-2.4-1.2-4.6-2.6-6.6-4.4l6.7-10.2c2.4,2.1,5.2,3.8,8.3,4.8
	c3.2,1.1,6.6,1.7,10,1.7c4,0,7.2-0.7,9.6-2.1c1.1-0.6,2-1.4,2.7-2.4c0.7-1,1.1-2.2,1.2-3.4l0,0c0.1-0.7,0.1-1.5-0.1-2.2
	c-0.2-0.7-0.5-1.4-1-2c-1-1.1-2.3-1.9-3.7-2.3c-2-0.6-4-1-6-1.3c-0.1,0-0.2,0-0.2,0c-0.1,0-0.2,0-0.2,0l-1-0.1
	c-3.6-0.5-7.2-1.4-10.7-2.6c-2.8-1.1-5.2-3-6.8-5.5c-1.8-2.6-2.4-6.3-2-11.1c0.3-3.9,1.7-7.7,3.9-10.9c2.3-3.1,5.4-5.5,9-6.9
	c4.3-1.8,8.8-2.6,13.4-2.6c2.4,0,4.8,0.3,7.1,0.8c2.4,0.5,4.8,1.3,7,2.3c2.2,1,4.4,2.3,6.3,3.7l-6.3,10.5c-2.3-1.7-4.8-3.1-7.5-4.1
	c-2.5-0.9-5.1-1.4-7.8-1.5c-3.1-0.1-6.2,0.5-9,1.9c-1,0.5-1.9,1.2-2.5,2.2c-0.6,0.9-1,2-1.1,3.1c-0.1,0.8-0.1,1.6,0.1,2.4
	c0.2,0.8,0.6,1.5,1.1,2.1c1,1.1,2.3,2,3.8,2.4c2.2,0.7,4.4,1.2,6.6,1.6l0.3,0.1l0.4,0.1c0.2,0,0.3,0.1,0.5,0.1l0.5,0.1
	c3.5,0.6,6.9,1.6,10.1,3c2.7,1.2,4.9,3.1,6.4,5.6c1.6,2.6,2.2,6.1,1.8,10.6v0.1c-0.3,3.9-1.7,7.6-4,10.8c-2.4,3.1-5.6,5.5-9.2,6.8
	c-4.4,1.7-9.1,2.4-13.8,2.3C528.8,819.3,525.7,819,522.7,818.4L522.7,818.4z"/>
<path class="st13" d="M582.9,786.4h7.9l18.7,65.8h-13.3l-11.3-44.9l-20.1,44.9h-13.3L582.9,786.4z M565.6,829.7h34.6l-1.2,11.9
	h-34.6L565.6,829.7z"/>
<path class="st13" d="M519.2,833.7h12.4l-6.4,65.8h-12.4L519.2,833.7z M519.4,887.5H558l-1.2,11.9h-38.6L519.4,887.5z"/>
<path class="st13" d="M577,864.5h12.4l-6.4,65.8h-12.4L577,864.5z M581.5,864.5H621l-1.2,11.9h-39.6L581.5,864.5z M578.8,891.6h34.6
	l-1.2,11.9h-34.6L578.8,891.6z M576.2,918.3h39.6l-1.2,11.9H575L576.2,918.3z"/>
<path class="st13" d="M557.8,917h-76.2L495,778.9h9.9l0.3-2.6h-12.5l-14,143.4h78.8L557.8,917z"/>
<path class="st13" d="M571.5,776.2l-0.3,2.6h76.2L634,917h-3.1l-0.3,2.6h5.7l14-143.4H571.5z"/>
<path class="st11" d="M501.6,696.6c2.9,0,5.7-0.9,8.1-2.5c2.4-1.6,4.3-3.9,5.4-6.6c1.1-2.7,1.4-5.6,0.8-8.4c-0.6-2.8-2-5.4-4-7.5
	c-2-2-4.6-3.4-7.5-4c-2.8-0.6-5.8-0.3-8.4,0.8c-2.7,1.1-5,3-6.6,5.4c-1.6,2.4-2.5,5.2-2.5,8.1c0,1.9,0.4,3.8,1.1,5.6
	c0.7,1.8,1.8,3.4,3.2,4.8s3,2.4,4.7,3.2C497.8,696.3,499.7,696.6,501.6,696.6L501.6,696.6z M501.6,676.6c1.1,0,2.1,0.3,3,0.9
	c0.9,0.6,1.6,1.4,2,2.4c0.4,1,0.5,2.1,0.3,3.1c-0.2,1-0.7,2-1.5,2.7c-0.7,0.7-1.7,1.3-2.7,1.5c-1,0.2-2.1,0.1-3.1-0.3
	c-1-0.4-1.8-1.1-2.4-2c-0.6-0.9-0.9-1.9-0.9-3c0-1.4,0.6-2.8,1.6-3.8C498.9,677.2,500.2,676.7,501.6,676.6L501.6,676.6z"/>
<path class="st11" d="M643.7,696.6c2.9,0,5.7-0.9,8.1-2.5c2.4-1.6,4.3-3.9,5.4-6.6s1.4-5.6,0.8-8.4c-0.6-2.8-2-5.4-4-7.5
	c-2-2-4.6-3.4-7.5-4c-2.8-0.6-5.8-0.3-8.4,0.8c-2.7,1.1-5,3-6.6,5.4c-1.6,2.4-2.5,5.2-2.5,8.1c0,1.9,0.4,3.8,1.1,5.6
	c0.7,1.8,1.8,3.4,3.2,4.8s3,2.4,4.7,3.2C639.9,696.3,641.8,696.6,643.7,696.6L643.7,696.6z M643.7,676.6c1.1,0,2.1,0.3,3,0.9
	c0.9,0.6,1.6,1.4,2,2.4c0.4,1,0.5,2.1,0.3,3.1c-0.2,1-0.7,2-1.5,2.7c-0.7,0.8-1.7,1.3-2.7,1.5c-1,0.2-2.1,0.1-3.1-0.3
	c-1-0.4-1.8-1.1-2.4-2c-0.6-0.9-0.9-1.9-0.9-3c0-1.4,0.6-2.8,1.6-3.8C641,677.2,642.3,676.7,643.7,676.6L643.7,676.6z"/>
<path class="st11" d="M643.7,687.6c-0.7,0-1.5-0.1-2.1-0.4c-0.7-0.3-1.3-0.7-1.8-1.2c-0.5-0.5-0.9-1.1-1.2-1.8
	c-0.3-0.7-0.4-1.4-0.4-2.1v-48c0-17.4-6.9-34-19.2-46.3c-12.3-12.3-28.9-19.2-46.3-19.2c-17.4,0-34,6.9-46.3,19.2
	c-12.3,12.3-19.2,28.9-19.2,46.3v48c0,1.5-0.6,2.9-1.6,3.9c-1,1-2.5,1.6-3.9,1.6c-1.5,0-2.9-0.6-3.9-1.6c-1-1-1.6-2.5-1.6-3.9v-48
	c0-20.3,8.1-39.8,22.4-54.2c14.4-14.4,33.9-22.4,54.2-22.4s39.8,8.1,54.2,22.4c14.4,14.4,22.4,33.9,22.4,54.2v48
	c0,1.5-0.6,2.9-1.6,4C646.6,687,645.2,687.6,643.7,687.6z"/>
<path class="st13" d="M433.6,639.2L398,609.8l-31,3.5l-72.4,87.5l69,57.1l72.4-87.5L433.6,639.2z M405.8,636.6
	c-0.4-0.3-0.7-0.8-0.9-1.3c-0.2-0.5-0.2-1.1,0-1.6c0.2-0.5,0.5-1,0.9-1.3c0.4-0.3,0.9-0.6,1.5-0.6c0.5-0.1,1.1,0.1,1.6,0.3
	c0.5,0.3,0.9,0.7,1.1,1.1c0.3,0.5,0.4,1,0.3,1.6c-0.1,0.5-0.3,1-0.6,1.5c-0.2,0.3-0.5,0.5-0.8,0.7c-0.3,0.2-0.7,0.3-1,0.3
	c-0.4,0-0.7,0-1.1-0.1S406.1,636.9,405.8,636.6L405.8,636.6z"/>
<path class="st1" d="M401.5,641.8c1.4,1.2,3.2,1.9,5.1,2.1c1.9,0.2,3.7-0.2,5.4-1c1.7-0.9,3-2.2,3.9-3.9c0.9-1.6,1.3-3.5,1.1-5.4
	c-0.2-1.9-0.9-3.6-2.1-5.1c-1.2-1.5-2.8-2.5-4.6-3.1c-1.8-0.5-3.7-0.6-5.5,0c-1.8,0.5-3.4,1.6-4.6,3c-1.6,1.9-2.4,4.4-2.1,6.9
	S399.6,640.2,401.5,641.8L401.5,641.8z M409.3,632.4c0.4,0.3,0.7,0.8,0.9,1.3c0.2,0.5,0.2,1.1,0,1.6c-0.2,0.5-0.5,1-0.9,1.3
	c-0.4,0.3-0.9,0.6-1.5,0.6c-0.5,0.1-1.1-0.1-1.6-0.3c-0.5-0.3-0.9-0.6-1.1-1.1s-0.4-1-0.3-1.6c0.1-0.5,0.3-1.1,0.6-1.5
	c0.5-0.6,1.1-0.9,1.8-1C408,631.7,408.7,631.9,409.3,632.4L409.3,632.4z"/>
<path class="st14" d="M398.2,663.2l6.6,5.4l-67.2,33.9L331,697L398.2,663.2z M369,639.3l11.8,9.7c0.4,0.3,0.7,0.7,1,1.1
	c0.2,0.4,0.4,0.9,0.4,1.4c0.1,0.5,0,1-0.1,1.5c-0.1,0.5-0.4,0.9-0.7,1.3L364.4,675c-0.3,0.4-0.7,0.7-1.1,1c-0.4,0.2-0.9,0.4-1.4,0.4
	c-0.5,0.1-1,0-1.5-0.1c-0.5-0.1-0.9-0.4-1.3-0.7l-11.8-9.7c-0.4-0.3-0.7-0.7-1-1.1c-0.2-0.4-0.4-0.9-0.4-1.4c-0.1-0.5,0-1,0.1-1.5
	s0.4-0.9,0.7-1.3l16.9-20.7c0.3-0.4,0.7-0.7,1.1-1c0.4-0.2,0.9-0.4,1.4-0.4c0.5-0.1,1,0,1.5,0.1C368.2,638.7,368.6,638.9,369,639.3
	L369,639.3z M376.8,690.1l11.8,9.7c0.4,0.3,0.7,0.7,1,1.1c0.2,0.4,0.4,0.9,0.4,1.4c0,0.5,0,1-0.1,1.5c-0.1,0.5-0.4,0.9-0.7,1.3
	l-16.9,20.7c-0.3,0.4-0.7,0.7-1.1,1s-0.9,0.4-1.4,0.4c-0.5,0.1-1,0-1.5-0.1s-0.9-0.4-1.3-0.7l-11.8-9.7c-0.4-0.3-0.7-0.7-1-1.1
	c-0.2-0.4-0.4-0.9-0.4-1.4c0-0.5,0-1,0.1-1.5c0.1-0.5,0.4-0.9,0.7-1.3l16.9-20.7c0.3-0.4,0.7-0.7,1.1-1c0.4-0.2,0.9-0.4,1.4-0.4
	c0.5,0,1,0,1.5,0.1C375.9,689.5,376.4,689.8,376.8,690.1L376.8,690.1z M372.9,651.1l-4.5-3.7c-0.1-0.1-0.2-0.2-0.3-0.2
	c-0.1,0-0.2-0.1-0.4,0c-0.1,0-0.2,0.1-0.4,0.1c-0.1,0.1-0.2,0.2-0.3,0.3L355,662.4c-0.1,0.1-0.2,0.2-0.2,0.3c0,0.1-0.1,0.2,0,0.4
	c0,0.1,0.1,0.2,0.1,0.4c0.1,0.1,0.2,0.2,0.3,0.3l4.4,3.6c0.1,0.1,0.2,0.2,0.3,0.2c0.1,0.1,0.3,0.1,0.4,0.1c0.1,0,0.3,0,0.4-0.1
	c0.1-0.1,0.2-0.2,0.3-0.3l12.1-14.8c0.1-0.1,0.2-0.2,0.2-0.3c0-0.1,0.1-0.2,0.1-0.4c0-0.1-0.1-0.2-0.1-0.4
	C373.1,651.3,373,651.2,372.9,651.1L372.9,651.1z M380.7,702l-4.5-3.7c-0.1-0.1-0.2-0.2-0.3-0.2c-0.1,0-0.2-0.1-0.4,0
	c-0.1,0-0.2,0.1-0.4,0.1c-0.1,0.1-0.2,0.2-0.3,0.3l-12.1,14.8c-0.1,0.1-0.2,0.2-0.2,0.3c0,0.1-0.1,0.2,0,0.4c0,0.1,0.1,0.2,0.1,0.4
	c0.1,0.1,0.2,0.2,0.3,0.3l4.4,3.6c0.1,0.1,0.2,0.2,0.3,0.2c0.1,0.1,0.3,0.1,0.4,0.1c0.1,0,0.3,0,0.4-0.1c0.1-0.1,0.2-0.2,0.3-0.3
	l12.1-14.8c0.1-0.1,0.2-0.2,0.2-0.3c0-0.1,0.1-0.2,0-0.4c0-0.1-0.1-0.2-0.1-0.4C380.9,702.2,380.8,702.1,380.7,702L380.7,702z"/>
<path class="st5" d="M407.5,637.8l-1.6-0.4c0.1-0.5,11.7-49.3,56-49.3c0.7,0,1.3,0,1.9,0c0.2-0.8,0.4-1.6,0.6-2.4
	c3.6-11.6,13.4-16.8,26.9-14.4c26.9,4.8,32.7,31.4,32.7,31.7l-1.6,0.3c0-0.3-5.6-25.8-31.4-30.4c-17.2-3.1-23.1,7-25.1,13.3
	c-0.2,0.6-0.4,1.3-0.5,2c14.9,1,26.3,7.9,30.7,19c2.9,7.3,2.1,15-2.1,19c-3.3,3.1-8,3.5-13.3,1.1c-13.1-6-19.4-24-17.2-37.6h-1.6
	C418.9,589.7,407.6,637.3,407.5,637.8z M465.1,589.8c-2.2,13,3.8,30.3,16.3,36c4.7,2.1,8.8,1.9,11.5-0.8c3.7-3.5,4.4-10.6,1.8-17.2
	C490.4,597.3,479.5,590.7,465.1,589.8L465.1,589.8z"/>
<path class="st15" d="M1093.9,437.7l-18.3,156.6"/>
<path class="st11" d="M1187.9,455.2c-13.1-4.4-20.7-7.8-25.3-12.7c-5.7-6-6.8-14.2-8-29.1c-0.1-0.8-0.1-1.7-0.1-2.5
	c0-0.2,0-0.4,0-0.7s0-0.4,0-0.6c0.2-8.5,3.3-16.6,7.3-23.6c0.8-1.3,1.6-2.6,2.4-3.9c1.1-1.7,2.2-3.2,3.3-4.7
	c4.1-5.5,8.7-10.5,13.8-15c-0.2,2.2-0.4,4.4-0.4,6.7c0,5.6,0.9,13.3,4.9,17c6.8,6.1,12.8,4.6,13,19.6s0.6,8.7,13.9,22
	S1217,464.9,1187.9,455.2z"/>
<path class="st16" d="M973.2,475l-9.8-3.8l-12.9,0.6c-0.2,0-0.5,0.1-0.7,0.2c-0.2,0.1-0.4,0.3-0.5,0.5c-0.1,0.2-0.2,0.4-0.2,0.7
	c0,0.2,0,0.5,0.1,0.7l0,0c0.1,0.3,0.4,0.6,0.7,0.8c0.3,0.2,0.7,0.3,1.1,0.3l12.1,0.6l6.6,4.1l-6.6-4.1l-10.7,0.4
	c-0.2,0-0.4,0-0.6,0.1c-0.2,0.1-0.3,0.2-0.4,0.4c-0.1,0.2-0.2,0.3-0.3,0.5c0,0.2,0,0.4,0,0.6l0,0c0.1,0.3,0.3,0.6,0.6,0.8
	s0.6,0.3,1,0.3l10.6,0.5l9.7,5.8l-9.7-5.8l-7.9,1.2c-0.1,0-0.2,0.1-0.4,0.1c-0.1,0.1-0.2,0.2-0.3,0.3c-0.1,0.1-0.1,0.2-0.1,0.4
	c0,0.1,0,0.3,0.1,0.4l0,0c0.1,0.2,0.3,0.4,0.5,0.5c0.2,0.1,0.5,0.2,0.7,0.1h8.9l9.3,4.8L973.2,475z"/>
<path class="st16" d="M973.2,475l-9.8-3.8l-12.9,0.6c-0.2,0-0.5,0.1-0.7,0.2c-0.2,0.1-0.4,0.3-0.5,0.5c-0.1,0.2-0.2,0.4-0.2,0.7
	c0,0.2,0,0.5,0.1,0.7l0,0c0.1,0.3,0.4,0.6,0.7,0.8c0.3,0.2,0.7,0.3,1.1,0.3l12.1,0.6l6.6,4.1l-6.6-4.1l-10.7,0.4
	c-0.2,0-0.4,0-0.6,0.1c-0.2,0.1-0.3,0.2-0.4,0.4c-0.1,0.2-0.2,0.3-0.3,0.5c0,0.2,0,0.4,0,0.6l0,0c0.1,0.3,0.3,0.6,0.6,0.8
	s0.6,0.3,1,0.3l10.6,0.5l9.7,5.8l-9.7-5.8l-7.9,1.2c-0.1,0-0.2,0.1-0.4,0.1c-0.1,0.1-0.2,0.2-0.3,0.3c-0.1,0.1-0.1,0.2-0.1,0.4
	c0,0.1,0,0.3,0.1,0.4l0,0c0.1,0.2,0.3,0.4,0.5,0.5c0.2,0.1,0.5,0.2,0.7,0.1h8.9l9.3,4.8L973.2,475z"/>
<path class="st4" d="M973.2,475l-9.8-3.8l-12.9,0.6c-0.2,0-0.5,0.1-0.7,0.2c-0.2,0.1-0.4,0.3-0.5,0.5c-0.1,0.2-0.2,0.4-0.2,0.7
	c0,0.2,0,0.5,0.1,0.7l0,0c0.1,0.3,0.4,0.6,0.7,0.8c0.3,0.2,0.7,0.3,1.1,0.3l12.1,0.6l6.6,4.1l-6.6-4.1l-10.7,0.4
	c-0.2,0-0.4,0-0.6,0.1c-0.2,0.1-0.3,0.2-0.4,0.4c-0.1,0.2-0.2,0.3-0.3,0.5c0,0.2,0,0.4,0,0.6l0,0c0.1,0.3,0.3,0.6,0.6,0.8
	s0.6,0.3,1,0.3l10.6,0.5l9.7,5.8l-9.7-5.8l-7.9,1.2c-0.1,0-0.2,0.1-0.4,0.1c-0.1,0.1-0.2,0.2-0.3,0.3c-0.1,0.1-0.1,0.2-0.1,0.4
	c0,0.1,0,0.3,0.1,0.4l0,0c0.1,0.2,0.3,0.4,0.5,0.5c0.2,0.1,0.5,0.2,0.7,0.1h8.9l9.3,4.8L973.2,475z"/>
<path class="st16" d="M973.3,471.6l12.9,12.2c0.8,0.7,1.7,1.2,2.6,1.5l29.4,8.5l-7.8,17.4l-22.7-10.4c-0.8-0.4-1.6-0.6-2.4-0.6
	l-1.4-0.1c-2.6,0.1-5.2-0.3-7.7-1.2s-4.7-2.3-6.6-4.1h-0.1c-0.5-0.5-1.2-0.9-1.9-1.2c-2.5-0.9-8.7-3.1-8.7-3.1
	c-0.1,0-0.2-0.1-0.2-0.1c-0.1-0.1-0.1-0.1-0.2-0.2c0-0.1-0.1-0.2-0.1-0.3c0-0.1,0-0.2,0-0.3c0.3-0.8,0.8-1.5,1.5-2
	c0.7-0.5,1.6-0.6,2.5-0.5l4.6,0.5c2.4,0.2,4.3-1.6,3.7-3.7l-2.6-8.9c-0.1-0.3-0.2-0.6-0.4-0.8c-0.2-0.2-0.4-0.4-0.7-0.5l-14.7-7.9
	c-0.3-0.1-0.5-0.4-0.7-0.7c-0.1-0.3-0.1-0.6,0-0.9l0,0c0.2-0.3,0.5-0.6,0.9-0.8c0.4-0.1,0.8-0.1,1.1,0c3.9,1.5,15.7,6.2,18.5,7.4
	C972.7,471.1,973.1,471.3,973.3,471.6z"/>
<path class="st4" d="M1016.8,493.3l-5.7,7.9c-2,2.6-4.6,3.9-7.6,2.6l-14.1-5.8c-1.1-0.5-2.3-0.7-3.6-0.7c-3.2,0.3-10.4,0.4-16.4-2.8
	c0,0,0.1,0.1,0.1,0.1c0,0,0.1,0,0.1,0h0.1c1.9,1.8,4.1,3.2,6.6,4.1c2.4,0.9,5.1,1.3,7.7,1.2l1.4,0.1c0.8,0,1.7,0.2,2.4,0.6
	l22.6,10.6v-0.2L1016.8,493.3z"/>
<path class="st7" d="M1184.4,975.3c-1,3.1-1.4,6.4-1.2,9.7l-0.1,27.1c0.2,4.7,1.5,9.3,3.8,13.4l0.6,1c0.7,1.2,1.7,2.2,2.8,2.8
	c1.2,0.7,2.5,1.1,3.9,1.1h7.8c1.7,0,3.4-0.6,4.8-1.7c1.4-1.1,2.3-2.6,2.8-4.2c1-4,1.1-8.2,0.4-12.3l-6.6-29.1
	c-0.4-2.7-1.2-5.4-2.4-7.9L1184.4,975.3L1184.4,975.3z"/>
<path class="st16" d="M1079.1,911.5l-1.6,50.7c0,4.8-1.2,9.8-3,12.4l-22.6,39.4l5.2,7.2l20.5-10.2l18.3-33c0-5.6,0.5-9,1.5-16.6
	l9-55.9L1079.1,911.5z"/>
<path class="st4" d="M1077.6,979.6c2.1-3.1,4.8-10.3,5.3-13.7l2.5-18.1c0.1-0.7,0.4-1.3,0.9-1.7c0.5-0.5,1.1-0.8,1.8-0.9l12.5-1.7
	l0.2-2.7h-22.5l-0.7,21.5c-0.1,3.5-0.7,9-3,12.4l-22.6,39.4l3.2,5.3L1077.6,979.6z"/>
<path class="st7" d="M1041,1020.6l10.8-6.5c3.8,0.6,7.8,0.2,11.4-1.1c3.6-1.4,6.8-3.7,9.3-6.7l23.3-28.3c4.2,9,5.7,19.1,4.3,28.9
	l-3.4,23.5h-2.7l-0.7-24.1c0-0.4-0.1-0.8-0.4-1.1s-0.6-0.5-0.9-0.7c-0.4-0.1-0.8-0.1-1.1,0c-0.4,0.1-0.7,0.3-0.9,0.6l-14.2,17.4
	c-2,2.5-4.5,4.4-7.4,5.8s-6,2.1-9.2,2.1H1037c-0.4,0-0.8-0.1-1.2-0.3c-0.3-0.2-0.7-0.5-0.9-0.8c-0.2-0.3-0.4-0.7-0.4-1.1
	c0-0.4,0-0.8,0.2-1.2C1036,1024.2,1038.2,1021.9,1041,1020.6L1041,1020.6z"/>
<path class="st16" d="M1183.3,963.1c1.2,9.8,1.7,19.6,1.5,29.4l-0.2,11.7c0.1,2.5,1.1,4.8,2.9,6.6c1.8,1.7,4.2,2.7,6.6,2.7h1.6
	c1.4,0,2.7-0.3,4-0.9c1.2-0.6,2.3-1.4,3.2-2.4c0.9-1,1.6-2.2,1.9-3.6c0.4-1.3,0.5-2.7,0.3-4l-2.7-13.9c-1.4-7.1-1.9-14.3-1.5-21.4
	l2.6-47.3l-24.4,0.4L1183.3,963.1z"/>
<path class="st5" d="M1092.1,590.9l-2.6,31.9l-3.1,34.9c-1.7,18.6-2.7,37.3-3.2,56l-6.1,227h24.6l45.8-299.5c0.2-1,0.7-1.9,1.4-2.5
	c0.8-0.6,1.7-1,2.7-1l0,0c1,0,2,0.4,2.8,1.1c0.8,0.7,1.2,1.7,1.3,2.7l23.9,299.2l24.2-0.2l12-215.8c2.6-46-0.9-92.2-10.4-137.3
	l-1.3-6.4L1092.1,590.9z"/>
<path class="st4" d="M1181.3,940.7c0,0,2.9,30.4,3.1,34.4v0.1c0.4,5.7,0.5,11.4,0.4,17.2l-0.2,11.7c0.1,2.4,1.1,4.7,2.7,6.4
	c1.7,1.7,3.9,2.7,6.3,2.8c-4.5-3.4-4.1-9.1-4.2-13.3l-0.8-51.4c0-0.8,0.3-1.6,0.8-2.2c0.5-0.6,1.2-1.1,2-1.2l10.9-2l0.1-2.4
	L1181.3,940.7z"/>
<path class="st9" d="M1151.6,637.8c1,0,2,0.4,2.8,1.1c0.8,0.7,1.2,1.7,1.3,2.7l23.9,299.2l8.7-0.1l-14.7-282
	c-0.3-5.6-2.7-11-6.8-14.8C1162.6,639.9,1157.2,637.8,1151.6,637.8z"/>
<path class="st7" d="M1209.3,481.5c0,0,2.6-12.9,5.7-26.8c0.5-2.3,0.6-4.8,0.2-7.1c-0.4-2.4-1.3-4.6-2.6-6.6c-1.3-2-3-3.8-4.9-5.1
	c-2-1.4-4.2-2.3-6.5-2.8l-21.7-4.7l-7.9-1.7l-44.9,0.4l-5.2,1.5L1101,434c-5.7,1.7-10.6,5.5-13.5,10.7v0l-0.1,0.2
	c-0.8,1.5-24.1,60.9-24.1,60.9l-46.6-12.6l-6.5,17.9l56.1,25.9c3.2,1.5,6.7,1.6,10,0.5c3.3-1.1,6-3.5,7.5-6.6l9.2-18.3l3.8,12
	c6.5,22.3-2.8,52.2-6.6,62.8c-0.2,0.5-0.2,0.9-0.1,1.4c0.1,0.5,0.2,0.9,0.5,1.3c0.3,0.4,0.6,0.7,1.1,0.9c0.4,0.2,0.9,0.3,1.4,0.3h39
	l35.6-0.1h37.3c0.5,0,1-0.1,1.5-0.3c0.5-0.2,0.9-0.5,1.2-0.9c0.3-0.4,0.6-0.9,0.7-1.4c0.1-0.5,0.2-1,0.1-1.5
	c-3.8-13.4-6.2-27.1-7.3-40.9c-0.5-7.9,0.1-15.8,1.8-23.5L1209.3,481.5z"/>
<path class="st9" d="M1092.1,591.3l-2.6,31.5l-1.9,21.7c-2.4,27.4-4,54.9-4.7,82.5l-5.7,213.8h9.8l15.3-297.6l2.7-51.6h-12h-0.5
	L1092.1,591.3z"/>
<path class="st16" d="M1213.4,589.3l-11.8,0c-0.2,0-0.5,0-0.7,0.1l-10.6,2.1c-0.9,0.2-1.8,0.5-2.6,1.1c-0.8,0.5-1.4,1.2-1.9,2
	l-5.4,8.4c-0.2,0.3-0.2,0.6-0.2,1c0,0.3,0.2,0.6,0.5,0.9l0,0c0.3,0.2,0.6,0.3,1,0.3c0.4,0,0.7-0.2,0.9-0.5l6.2-7.3l7.8-2.1l-7.1,3.3
	l-5.7,9c-0.2,0.3-0.3,0.7-0.2,1c0.1,0.4,0.2,0.7,0.5,1l0,0c0.2,0.2,0.4,0.3,0.6,0.4c0.2,0.1,0.4,0.1,0.7,0.1c0.2,0,0.4,0,0.7-0.1
	c0.2-0.1,0.4-0.2,0.6-0.4l6.7-7.1l5.3-2.2l-4.7,3.5l-5.5,6.9c-0.2,0.3-0.4,0.7-0.3,1.1c0,0.4,0.2,0.8,0.5,1c0.3,0.2,0.6,0.4,1,0.4
	s0.7-0.1,1-0.4l6.5-6l6-2.9l-7.3,6.6c-0.3,0.3-0.5,0.6-0.5,1c0,0.4,0.1,0.8,0.3,1.1c0.2,0.3,0.5,0.4,0.8,0.5c0.3,0.1,0.7,0,1-0.1
	l10-5.4l7.2,0.4c2.7,0.1,5.3-0.6,7.4-2.2c2.1-1.6,3.7-3.8,4.4-6.4l0.2-0.7l41.2-58.4l-21.8-15.5L1213.4,589.3z"/>
<path class="st7" d="M1210.9,438.9l66.2,67.5c2.5,2.5,4,5.9,4.3,9.4c0.3,3.6-0.7,7.1-2.8,10l-35.9,49.7l-16.3-13.1l22-42.6
	l-46.4-40.3L1210.9,438.9z"/>
<path class="st4" d="M1214.7,482l-2.1-11.6c0-0.1-0.1-0.3-0.2-0.4c-0.1-0.1-0.2-0.1-0.4-0.1c-0.1,0-0.3,0.1-0.4,0.1
	c-0.1,0.1-0.2,0.2-0.2,0.4l-2.6,15.1l39.6,34.3l1.9-3.3c0.4-0.7,0.5-1.4,0.4-2.2c-0.1-0.8-0.5-1.4-1.1-1.9L1214.7,482z"/>
<path class="st4" d="M1227,563l8.9,11.5c0.3,0.3,0.4,0.8,0.4,1.2s-0.1,0.9-0.3,1.2l-13,19.7c0,0-4.2,11.3-14.8,10.9l6.3,0.3
	c2.7,0.1,5.3-0.6,7.4-2.2c2.2-1.6,3.7-3.8,4.4-6.4l0.2-0.7l16.2-22.9L1227,563z"/>
<path class="st16" d="M1167,387l0.9,33.8c0,1.3,0.5,2.6,1.3,3.7c0.8,1,2,1.8,3.2,2.1l3.8,1l-4.6,6.6c-2.3,3.3-5.2,6.1-8.7,8.1
	s-7.4,3.2-11.4,3.4c-0.5,0-1,0.1-1.6,0.1c-4.3,0-8.6-1.1-12.4-3.1c-3.8-2-7.1-5-9.5-8.5l-4.3-6.3l4.3-1.2c1.2-0.3,2.3-1,3.1-1.9
	c0.8-0.9,1.3-2.1,1.4-3.3l4.4-40.1L1167,387z"/>
<path class="st16" d="M1143.5,412l1.6,0.1c5.5,0.2,10.9-1.7,15-5.4c4.1-3.7,6.5-8.9,6.7-14.4l1.3-29.2c0.1-1.8-0.6-3.6-1.8-5
	c-1.2-1.4-3-2.2-4.8-2.2l-27.2-1.2c-1.2-0.1-2.4,0.1-3.5,0.5c-1.1,0.4-2.1,1-3,1.8c-0.9,0.8-1.6,1.8-2.1,2.8
	c-0.5,1.1-0.8,2.2-0.8,3.4l-1.2,27.1c-0.2,5.5,1.7,10.9,5.5,15C1132.8,409.3,1138,411.8,1143.5,412z"/>
<path class="st11" d="M1145,383.1c1.2,0,2.3-1,2.3-2.3c0-1.2-1-2.3-2.3-2.3s-2.3,1-2.3,2.3C1142.7,382.1,1143.8,383.1,1145,383.1z"
	/>
<path class="st11" d="M1127.6,383.1c1.2,0,2.3-1,2.3-2.3c0-1.2-1-2.3-2.3-2.3s-2.3,1-2.3,2.3
	C1125.3,382.1,1126.3,383.1,1127.6,383.1z"/>
<g class="st17">
	<path class="st18" d="M1136.4,393.2l3,0.2c0.1,0,0.2,0,0.2,0c0.1,0,0.2-0.1,0.2-0.1c0.1-0.1,0.1-0.1,0.2-0.2c0-0.1,0.1-0.2,0.1-0.2
		c0-0.1,0-0.2,0-0.3c0-0.1-0.1-0.2-0.1-0.2c-0.1-0.1-0.1-0.1-0.2-0.2c-0.1,0-0.2-0.1-0.2-0.1l-3-0.2c-0.3,0-0.7-0.2-0.9-0.5
		c-0.2-0.3-0.3-0.6-0.3-1c0-0.4,0.2-0.7,0.5-0.9c0.3-0.2,0.6-0.4,1-0.3c0.2,0,0.4,0,0.5-0.2c0.1-0.1,0.2-0.3,0.2-0.4s0-0.3-0.2-0.5
		c-0.1-0.1-0.3-0.2-0.4-0.2c-0.7-0.1-1.4,0.2-2,0.6c-0.5,0.5-0.9,1.1-0.9,1.8c-0.1,0.7,0.2,1.4,0.6,2
		C1135,392.8,1135.7,393.2,1136.4,393.2L1136.4,393.2z"/>
</g>
<path class="st11" d="M1181.3,362.4c-0.2,2.2-0.4,4.4-0.4,6.7l-0.9,0.4c-0.8,3-1.8,6-3,8.9c-1,2.5-2,4.9-2.7,7
	c-0.4,1.2-2-1.5-3.4-3.9c-0.2-0.4-0.5-0.8-0.7-1.1c-0.4-0.6-0.8-1.2-1.4-1.6c-0.1-0.1-0.7,0.7-1.3,1.6c0,0,0,0,0,0.1
	c-0.4,0.6-0.9,1.2-1.2,1.7c-0.1,0.2-0.2,0.3-0.4,0.4c-0.2,0.1-0.3,0.2-0.5,0.2c-0.2,0-0.4,0-0.6-0.1c-0.2-0.1-0.3-0.2-0.5-0.3
	c-0.1-0.1-0.2-0.3-0.3-0.5l0,0c-1.1-3.7-1.6-7.5-1.4-11.3l0.1-3.5c-5.8-0.8-8.8-5.3-10-7.3c-0.2-0.3-0.4-0.7-0.5-1
	c-0.4,0.4-0.7,0.8-1.1,1.1c-7.6,7.1-19.2,6.2-24,5.5c-0.3,0-0.5,0-0.8,0c-0.3,0.1-0.5,0.2-0.7,0.4c-0.2,0.2-0.4,0.4-0.5,0.6
	s-0.2,0.5-0.2,0.8c0,0,0,0.1,0,0.1l-0.3,6.9l-0.1,1.2l-0.2,5c-1-1-1.8-2.1-2.6-3.2c-0.2-0.3-0.4-0.6-0.6-1c-0.2-0.4-0.4-0.5-0.5-0.9
	c-0.9-1.6-1.7-3.4-2.3-5.2c-0.5-2-0.8-4-1-6c-0.1-7,3.6-9.6,5.6-10.6c0.3-0.2,0.7-0.4,0.9-0.7c0.2-0.3,0.3-0.7,0.4-1.1
	c1.5-21.7,31.2-26.8,46.7-13.9C1179.9,345.5,1182.1,354.2,1181.3,362.4z"/>
<path class="st16" d="M1165.3,393.3c0,0,9.8,1.6,12.8-8c2.9-9.6-9.1-12.4-11.6-2.7l-2.2,10.6L1165.3,393.3z"/>
<path class="st18" d="M1175.4,379.9c-0.4-0.4-0.8-0.7-1.3-0.9c-0.5-0.2-1-0.2-1.6-0.2c-0.5,0.1-1,0.2-1.5,0.5
	c-0.4,0.3-0.8,0.7-1.1,1.2c-0.8,1.1-1.3,2.4-1.5,3.7l-0.1,1.1c-0.1,0.8,1.2,1.1,1.3,0.2l0.2-1.1c0.2-1.1,0.5-2.2,1.1-3.1
	c0.2-0.3,0.4-0.6,0.7-0.8c0.3-0.2,0.6-0.4,1-0.4c0.4,0,0.7,0.1,1,0.2c0.3,0.1,0.6,0.3,0.9,0.6c0.1,0.1,0.3,0.2,0.5,0.1
	c0.2,0,0.3-0.1,0.4-0.2c0.1-0.1,0.2-0.3,0.2-0.5C1175.6,380.1,1175.5,380,1175.4,379.9L1175.4,379.9z"/>
<path class="st14" d="M1148.4,373.2c-1.7-0.1-3.3,0.2-4.8,1c-1.5,0.8-2.7,1.9-3.6,3.4c-1.8-0.7-3.8-0.7-5.6,0
	c-1.1-1.6-2.6-2.8-4.4-3.4c-1.8-0.6-3.8-0.7-5.6-0.2c-1.8,0.5-3.5,1.6-4.6,3.1c-1.2,1.5-1.9,3.3-1.9,5.2s0.4,3.8,1.5,5.4
	c1.1,1.6,2.6,2.8,4.4,3.5c0.8,0.3,1.7,0.5,2.6,0.6c1.6,0.1,3.2-0.2,4.6-0.9c1.5-0.7,2.7-1.8,3.6-3.1c0.9-1.3,1.4-2.9,1.5-4.5
	c0.1-1.6-0.2-3.2-1-4.6c1.5-0.5,3-0.4,4.5,0.1c-0.4,0.9-0.7,1.9-0.7,2.9c-0.1,1.8,0.3,3.5,1.1,5.1c0.9,1.5,2.2,2.8,3.8,3.6
	c1.6,0.8,3.4,1.1,5.1,0.9c1.8-0.2,3.4-0.9,4.8-2.1c1.3-1.2,2.3-2.7,2.8-4.4s0.4-3.5-0.1-5.2c-0.5-1.7-1.6-3.2-3-4.3
	C1151.8,374,1150.1,373.3,1148.4,373.2L1148.4,373.2z M1134.8,383.2c-0.2,2.1-1.1,4-2.7,5.4c-1.6,1.4-3.7,2-5.7,1.9
	c-0.9-0.1-1.8-0.3-2.6-0.7c-1.5-0.7-2.7-1.8-3.6-3.1c-0.8-1.4-1.2-3-1.1-4.6c0.1-1.9,1-3.8,2.4-5.1c0.8-0.8,1.8-1.4,2.8-1.7l0,0
	c1-0.4,2.1-0.5,3.2-0.4c2.1,0.2,4,1.1,5.4,2.7C1134.2,379,1134.9,381.1,1134.8,383.2L1134.8,383.2z M1147.1,390
	c-2.1-0.2-4-1.1-5.3-2.7c-1.4-1.6-2-3.6-1.9-5.7c0,0,0-0.1,0-0.1c0.1-1,0.4-2,0.8-3c0.5-0.9,1.1-1.7,1.9-2.4
	c0.8-0.7,1.7-1.2,2.7-1.5c1-0.3,2-0.4,3.1-0.4c1,0.1,2,0.4,3,0.8c0.9,0.5,1.8,1.1,2.4,1.9c0.7,0.8,1.2,1.7,1.5,2.7
	c0.3,1,0.4,2,0.4,3.1c-0.1,0.6-0.2,1.3-0.4,1.9c-0.6,1.7-1.7,3.1-3.1,4.1C1150.6,389.7,1148.8,390.1,1147.1,390L1147.1,390z"/>
<path class="st3" d="M1168.2,392c1.1,0,2-0.9,2-2c0-1.1-0.9-2-2-2c-1.1,0-2,0.9-2,2C1166.2,391.2,1167.1,392,1168.2,392z"/>
<path class="st4" d="M1167.4,391.7c0.3,0,0.6,0,0.8-0.1c0.3-0.1,0.5-0.2,0.7-0.4c0.2-0.2,0.4-0.4,0.5-0.7c0.1-0.3,0.2-0.5,0.2-0.8
	c0-0.4,0-0.8-0.2-1.2c0.3,0.3,0.5,0.6,0.6,1c0.1,0.4,0.1,0.8-0.1,1.2c-0.2,0.4-0.4,0.7-0.8,0.9c-0.3,0.2-0.8,0.3-1.2,0.3
	c-0.4,0-0.8-0.2-1.1-0.4C1167.1,391.6,1167.3,391.6,1167.4,391.7L1167.4,391.7z"/>
<path class="st4" d="M1167.2,393.4l-3.2,0l3.4,6.8L1167.2,393.4z"/>
<path class="st4" d="M1133.2,408.5c3.3,1.8,7,2.9,10.7,2.9c0.9,0,1.7,0,2.5,0c0.3,0,0.7,0,1-0.1h0.2c0.5-0.1,1-0.1,1.4-0.2l0.6-0.1
	c2.6-0.5,5.1-1.4,7.3-2.7c0.1-0.1,0.3-0.1,0.5-0.1c0.2,0,0.3,0.1,0.4,0.3c0.1,0.1,0.1,0.3,0.1,0.5c0,0.2-0.1,0.3-0.3,0.4
	c-2.9,1.7-6.2,2.7-9.6,3.1c-3.1,2.4-7,3.7-10.9,3.7c-1.6,0-3.1-0.2-4.7-0.5L1133.2,408.5z"/>
<path class="st14" d="M1134.7,396.8c-0.1,0-0.1,0-0.2,0.1c-0.1,0-0.1,0.1-0.2,0.1c0,0.1,0,0.1,0,0.2s0,0.1,0,0.2
	c0.5,1.1,1.3,2,2.4,2.7c1,0.7,2.2,1,3.4,1c1.2,0,2.4-0.3,3.4-1c1-0.7,1.8-1.6,2.4-2.7c0-0.1,0-0.1,0-0.2s0-0.1,0-0.2
	c0-0.1-0.1-0.1-0.2-0.1c-0.1,0-0.1-0.1-0.2-0.1H1134.7z"/>
<path class="st4" d="M1096.4,473.2l-2.2,7.6l-2.7,4.6c-4.8,7.9-6.4,17.4-4.6,26.5l0,0l-8.8,18.3c-2.3,4.3-8.6,7.7-14.1,5.8l2.3,1.1
	c3.2,1.4,6.7,1.6,10,0.5c3.3-1.1,6-3.5,7.5-6.6l9.2-18.3l-0.7-2.5c-1.2-3.9-1.6-8.1-1.1-12.2c0.4-4.1,1.7-8.1,3.7-11.7l2.3-4.1v-9
	c0-0.1-0.1-0.2-0.1-0.3c-0.1-0.1-0.2-0.1-0.3-0.1c-0.1,0-0.2,0-0.3,0.1C1096.5,473,1096.4,473.1,1096.4,473.2L1096.4,473.2z"/>
<path d="M1054.4,531.6l1.2,0.6L1054.4,531.6z"/>
<g class="st19">
	<path class="st4" d="M1277.2,506.4l-3.6-3.6c2,3.1,3,6.8,2.9,10.5c-0.1,3.7-1.3,7.3-3.4,10.3l-34.2,49l3.8,3.1l35.5-49.1
		C1283.4,519.2,1282,511.5,1277.2,506.4z"/>
</g>
<path class="st5" d="M1090.2,589.5l-10.8-0.9c-4.7-0.4-9,5-9.6,11.9l-4,50c-0.6,7,2.8,12.9,7.6,13.3l10.8,0.9c4.7,0.4,9-5,9.6-11.9
	l4-50C1098.4,595.9,1095,589.9,1090.2,589.5z"/>
<path class="st4" d="M1090.2,589.5l-10.8-0.9c-4.7-0.4-9,5-9.6,11.9l-4,50c-0.6,7,2.8,12.9,7.6,13.3l10.8,0.9c4.7,0.4,9-5,9.6-11.9
	l4-50C1098.4,595.9,1095,589.9,1090.2,589.5z"/>
<path class="st5" d="M1101.3,601.3c0.4-4.7-3.2-8.9-7.9-9.3s-8.9,3.2-9.3,7.9l-4.7,58.3c-0.4,4.8,3.2,8.9,7.9,9.3s8.9-3.2,9.3-7.9
	L1101.3,601.3z"/>
<path class="st6" d="M1101.3,601.3c0.4-4.7-3.2-8.9-7.9-9.3s-8.9,3.2-9.3,7.9l-4.7,58.3c-0.4,4.8,3.2,8.9,7.9,9.3s8.9-3.2,9.3-7.9
	L1101.3,601.3z"/>
<path class="st5" d="M1091.7,585.9l-3.1-0.2c-1.2-0.1-2.3,0.8-2.4,2.1l-1.4,17c-0.1,1.2,0.8,2.3,2.1,2.4l3.1,0.2
	c1.2,0.1,2.3-0.8,2.4-2.1l1.3-17C1093.9,587.1,1092.9,586,1091.7,585.9z"/>
<path class="st4" d="M1091.7,585.9l-3.1-0.2c-1.2-0.1-2.3,0.8-2.4,2.1l-1.4,17c-0.1,1.2,0.8,2.3,2.1,2.4l3.1,0.2
	c1.2,0.1,2.3-0.8,2.4-2.1l1.3-17C1093.9,587.1,1092.9,586,1091.7,585.9z"/>
<path class="st4" d="M1078.7,626.5l-10.8-0.9l-0.2,2.6l10.8,0.9L1078.7,626.5z"/>
<path class="st4" d="M1093.2,597.4c0.1-1.4-0.6-2.6-1.5-2.7c-1-0.1-1.8,1-1.9,2.4c-0.1,1.4,0.6,2.6,1.5,2.7
	C1092.2,599.9,1093.1,598.8,1093.2,597.4z"/>
<path class="st6" d="M1075.4,608.1l-2-0.2c-0.8-0.1-1.6,0.6-1.6,1.4l-1,12c-0.1,0.8,0.6,1.6,1.4,1.6l2,0.2c0.8,0.1,1.6-0.6,1.6-1.4
	l1-12C1076.9,608.9,1076.3,608.2,1075.4,608.1z"/>
<path class="st20" d="M1089.3,596.5l11.4-157.4c0.1-0.7-0.1-1.4-0.4-2c-0.3-0.6-0.8-1.1-1.4-1.5c-0.6-0.4-1.3-0.6-2-0.6
	c-0.7,0-1.4,0.2-2,0.5c-0.2,0.1-0.4,0.3-0.7,0.5"/>
<path class="st4" d="M1209.3,481.5c0,0,0.1-0.7,0.4-1.8c-4.9,11.3-9,21-9,21l-14.2,39.4c-3.1,7.2-5.2,14.9-6.3,22.7
	c-1.2,9.5-1.6,19.1-1.4,28.6h26.3c0.5,0,1-0.1,1.5-0.3c0.5-0.2,0.9-0.5,1.2-0.9c0.3-0.4,0.6-0.9,0.7-1.4c0.1-0.5,0.2-1,0.1-1.5
	c-3.8-13.4-6.2-27.1-7.3-40.9c-0.5-7.9,0.1-15.8,1.8-23.5L1209.3,481.5z"/>
<path class="st11" d="M955.2,521.6l-47.7,5.9L888,553.4l14.4,117.3l92.4-11.4L980.4,542L955.2,521.6z M933.3,540.8
	c-0.6,0.1-1.1,0-1.6-0.3c-0.5-0.3-0.9-0.7-1.2-1.1c-0.3-0.5-0.4-1.1-0.4-1.6c0-0.6,0.2-1.1,0.6-1.5c0.3-0.4,0.8-0.8,1.4-1
	c0.5-0.2,1.1-0.2,1.7,0c0.5,0.2,1,0.5,1.4,0.9c0.4,0.4,0.6,1,0.7,1.5c0,0.4,0,0.7-0.1,1.1c-0.1,0.4-0.3,0.7-0.5,1
	c-0.2,0.3-0.5,0.5-0.8,0.7C934.1,540.6,933.7,540.7,933.3,540.8L933.3,540.8z"/>
<path class="st10" d="M934.2,547.7c1.9-0.2,3.7-1,5.2-2.3c1.5-1.3,2.5-3,3.1-4.8c0.5-1.9,0.5-3.9-0.1-5.7c-0.6-1.8-1.8-3.5-3.3-4.7
	c-1.5-1.2-3.4-1.9-5.3-2.1c-1.9-0.1-3.9,0.3-5.6,1.3c-1.7,1-3.1,2.4-3.9,4.1c-0.9,1.7-1.2,3.7-1,5.6c0.2,1.3,0.6,2.5,1.2,3.7
	c0.6,1.1,1.5,2.1,2.5,2.9c1,0.8,2.2,1.4,3.4,1.7C931.6,547.8,932.9,547.9,934.2,547.7L934.2,547.7z M932.6,535.1
	c0.6-0.1,1.1,0,1.6,0.3c0.5,0.3,0.9,0.7,1.2,1.1c0.3,0.5,0.4,1.1,0.4,1.6c0,0.6-0.2,1.1-0.6,1.5c-0.3,0.4-0.8,0.8-1.4,1
	c-0.5,0.2-1.1,0.2-1.7,0c-0.5-0.2-1-0.5-1.4-0.9c-0.4-0.4-0.6-1-0.7-1.5c-0.1-0.8,0.1-1.5,0.6-2.1
	C931.2,535.6,931.9,535.2,932.6,535.1L932.6,535.1z"/>
<path class="st14" d="M948,565.5l8.8-1.1l-22.4,75l-8.8,1.1L948,565.5z M909,570.5l15.8-2c0.5-0.1,1,0,1.6,0.1
	c0.5,0.1,1,0.4,1.4,0.7c0.4,0.3,0.8,0.7,1,1.2c0.3,0.5,0.4,1,0.5,1.5l3.5,27.6c0.1,1-0.2,2.1-0.8,2.9c-0.6,0.8-1.6,1.4-2.6,1.5
	l-15.8,2c-0.5,0.1-1,0-1.6-0.1c-0.5-0.1-1-0.4-1.4-0.7c-0.4-0.3-0.8-0.7-1-1.2c-0.3-0.5-0.4-1-0.5-1.5l-3.5-27.6
	c-0.1-0.5,0-1,0.1-1.6c0.1-0.5,0.4-1,0.7-1.4c0.3-0.4,0.7-0.8,1.2-1S908.5,570.6,909,570.5L909,570.5z M953,601l15.8-2
	c0.5-0.1,1,0,1.6,0.1c0.5,0.1,1,0.4,1.4,0.7c0.4,0.3,0.8,0.7,1,1.2c0.3,0.5,0.4,1,0.5,1.5l3.6,27.6c0.1,0.5,0,1-0.1,1.6
	c-0.1,0.5-0.4,1-0.7,1.4c-0.3,0.4-0.7,0.8-1.2,1c-0.5,0.3-1,0.4-1.5,0.5l-15.8,2c-0.5,0.1-1,0-1.6-0.1c-0.5-0.1-1-0.4-1.4-0.7
	c-0.4-0.3-0.8-0.7-1-1.2c-0.3-0.5-0.4-1-0.5-1.5l-3.5-27.6c-0.1-0.5,0-1,0.1-1.5c0.1-0.5,0.4-1,0.7-1.4c0.3-0.4,0.7-0.8,1.2-1
	C952,601.2,952.5,601.1,953,601L953,601z M920.8,576.1l-6,0.8c-0.1,0-0.3,0-0.4,0.1c-0.1,0.1-0.2,0.1-0.3,0.2
	c-0.1,0.1-0.1,0.2-0.2,0.4c0,0.1,0,0.3,0,0.4l2.5,19.7c0,0.1,0,0.3,0.1,0.4c0.1,0.1,0.1,0.2,0.2,0.3c0.1,0.1,0.2,0.1,0.4,0.2
	c0.1,0,0.3,0,0.4,0l5.9-0.8c0.7-0.1,1-0.4,0.9-1.1l-2.5-19.7c0-0.1,0-0.3-0.1-0.4c-0.1-0.1-0.1-0.2-0.2-0.3
	c-0.1-0.1-0.2-0.1-0.3-0.2C921.1,576,920.9,576,920.8,576.1L920.8,576.1z M964.8,606.5l-6,0.8c-0.1,0-0.3,0-0.4,0.1
	c-0.1,0.1-0.2,0.1-0.3,0.2c-0.1,0.1-0.1,0.2-0.2,0.4c0,0.1,0,0.3,0,0.4l2.5,19.7c0,0.1,0,0.3,0.1,0.4s0.1,0.2,0.2,0.3
	c0.1,0.1,0.2,0.1,0.4,0.2c0.1,0,0.3,0,0.4,0l5.9-0.8c0.7-0.1,1-0.5,0.9-1.1l-2.5-19.7c0-0.1,0-0.3-0.1-0.4c-0.1-0.1-0.1-0.2-0.2-0.3
	c-0.1-0.1-0.2-0.1-0.3-0.2C965.1,606.5,964.9,606.5,964.8,606.5L964.8,606.5z"/>
<path class="st1" d="M932.4,540.9c0-0.5-1-51.5-44.7-60.9l-1.7-0.3c-0.8,14.3-11.2,31.2-25.8,34.4c-5.9,1.3-10.6-0.1-13.3-4
	c-3.4-5-2.6-12.9,2-19.7c7-10.3,20.1-14.9,35.5-12.6c0-0.7,0-1.5-0.1-2.2c-0.6-6.8-4.3-18.4-22.6-19.1c-27.3-1-38.6,23.7-38.7,23.9
	l-1.5-0.7c0.1-0.3,11.8-26,40.2-24.9c14.2,0.5,23,8,24.1,20.6c0.1,0.8,0.1,1.7,0.1,2.6c0.7,0.1,1.3,0.2,2,0.4c45,9.8,46,62,46,62.5
	L932.4,540.9z M884.4,479.3c-14.8-2.3-27.4,2-34.1,11.8c-4.2,6.2-5,13.5-2,17.9c2.2,3.3,6.4,4.5,11.6,3.3
	C873.9,509.3,883.8,493,884.4,479.3L884.4,479.3z"/>
<path class="st21" d="M1374.1,1031H152.6c-0.1,0-0.2,0-0.2,0c-0.1,0-0.2-0.1-0.2-0.1c-0.1-0.1-0.1-0.1-0.1-0.2
	c0-0.1-0.1-0.2-0.1-0.2c0-0.1,0-0.2,0.1-0.2c0-0.1,0.1-0.1,0.1-0.2c0.1,0,0.1-0.1,0.2-0.1s0.2,0,0.2,0h1221.7c0.1,0,0.2,0,0.2,0
	c0.1,0,0.2,0.1,0.2,0.1c0.1,0.1,0.1,0.1,0.1,0.2c0,0.1,0,0.2,0,0.2C1374.9,1030.7,1374.5,1031,1374.1,1031z"/>
</svg>
