<?xml version="1.0" encoding="utf-8"?>
<!-- Generator: Adobe Illustrator 26.0.1, SVG Export Plug-In . SVG Version: 6.00 Build 0)  -->
<svg version="1.1" id="Layer_1" xmlns="http://www.w3.org/2000/svg" xmlns:xlink="http://www.w3.org/1999/xlink" x="0px" y="0px"
	 viewBox="0 0 1600 1200" style="enable-background:new 0 0 1600 1200;" xml:space="preserve">
<style type="text/css">
	.st0{opacity:8.000000e-02;}
	.st1{fill:#F4F4F4;}
	.st2{fill:#FFFFFF;}
	.st3{fill:#4D61FC;}
	.st4{opacity:0.4;}
	.st5{opacity:0.4;fill:#FFFFFF;enable-background:new    ;}
	.st6{fill:#B2B6BB;}
	.st7{fill:#21252B;}
	.st8{fill:#61656D;}
	.st9{opacity:0.7;fill:#FFFFFF;enable-background:new    ;}
	.st10{opacity:0.5;enable-background:new    ;}
	.st11{fill:#3F4249;}
	.st12{opacity:0.3;enable-background:new    ;}
	.st13{opacity:0.5;}
	.st14{opacity:0.5;fill:#FFFFFF;enable-background:new    ;}
	.st15{fill:none;stroke:#868A91;stroke-width:0.3695;stroke-miterlimit:10;}
	.st16{fill:#868A91;}
	.st17{opacity:0.3;fill:#FFFFFF;enable-background:new    ;}
	.st18{fill:#DADDDF;}
	.st19{opacity:0.15;enable-background:new    ;}
	.st20{opacity:0.2;enable-background:new    ;}
	.st21{fill:#FC9D9D;}
	.st22{opacity:0.6;enable-background:new    ;}
	.st23{opacity:0.3;}
	.st24{opacity:0.15;}
	.st25{fill-rule:evenodd;clip-rule:evenodd;fill:#3F4249;}
	.st26{fill-rule:evenodd;clip-rule:evenodd;fill:#868A91;}
	.st27{fill-rule:evenodd;clip-rule:evenodd;fill:#21252B;}
</style>
<g class="st0">
	<path class="st1" d="M296.7,1056.5l-59.7-543c-1.6-14.5,2.7-29.1,11.8-40.5l228.8-284.5c11.9-14.8,30.7-22.4,49.6-20.1l648.3,80
		c20.3,2.5,37.6,16.1,44.8,35.3l133.1,355.6c3.2,8.5,4.2,17.6,3,26.5l-51.8,390.7H296.7z"/>
	<path class="st2" d="M483.8,631.6c24.9,0,45-20.1,45-45c0-24.9-20.1-45-45-45c-24.9,0-45,20.1-45,45
		C438.8,611.5,458.9,631.6,483.8,631.6z"/>
	<path class="st3" d="M463.4,573.8c0-4.1,3.3-7.4,7.4-7.4c4.1,0,7.4,3.3,7.4,7.4c0,4.1-3.3,7.4-7.4,7.4
		C466.7,581.2,463.4,577.9,463.4,573.8z"/>
	<path class="st3" d="M467.6,601.4l27.4-35c0.4-0.5,1-0.5,1.5-0.2l4.2,3.3c0.5,0.4,0.5,1,0.2,1.5l-27.4,35c-0.4,0.5-1,0.5-1.5,0.2
		l-4.2-3.3C467.3,602.5,467.2,601.9,467.6,601.4z"/>
	<path class="st3" d="M496.8,607.3c-4.1,0-7.4-3.3-7.4-7.4s3.3-7.4,7.4-7.4c4.1,0,7.4,3.3,7.4,7.4S500.9,607.3,496.8,607.3z"/>
	<g class="st4">
		<path class="st5" d="M463.4,573.8c0-4.1,3.3-7.4,7.4-7.4c4.1,0,7.4,3.3,7.4,7.4c0,4.1-3.3,7.4-7.4,7.4
			C466.7,581.2,463.4,577.9,463.4,573.8z"/>
		<path class="st5" d="M467.6,601.4l27.4-35c0.4-0.5,1-0.5,1.5-0.2l4.2,3.3c0.5,0.4,0.5,1,0.2,1.5l-27.4,35c-0.4,0.5-1,0.5-1.5,0.2
			l-4.2-3.3C467.3,602.5,467.2,601.9,467.6,601.4z"/>
		<path class="st5" d="M496.8,607.3c-4.1,0-7.4-3.3-7.4-7.4s3.3-7.4,7.4-7.4c4.1,0,7.4,3.3,7.4,7.4S500.9,607.3,496.8,607.3z"/>
	</g>
	<path class="st2" d="M444.1,447.7c24.9,0,45-20.1,45-45c0-24.9-20.1-45-45-45s-45,20.1-45,45C399.1,427.6,419.2,447.7,444.1,447.7z
		"/>
	<path class="st3" d="M468.3,387.3c-0.2-0.2-0.5-0.4-0.8-0.4h-38.6l-1.1-5.3c-0.1-0.5-0.5-0.8-1-0.8h-6.1c-0.6,0-1,0.5-1,1
		s0.5,1,1,1h5.3l4.9,24.7c0.7,3.3,3.6,5.7,7,5.7h23.4c0.6,0,1-0.5,1-1s-0.5-1-1-1h-23.4c-1.7,0-3.2-0.8-4.1-2.1l29.7-4
		c0.4-0.1,0.8-0.4,0.9-0.8l4.1-16.2C468.5,387.9,468.5,387.5,468.3,387.3z"/>
	<path class="st3" d="M458.1,425.4c2.8-0.5,4.7-3.1,4.2-5.9c-0.5-2.8-3.1-4.7-5.9-4.2c-2.8,0.5-4.7,3.1-4.2,5.9
		C452.7,424,455.3,425.9,458.1,425.4z"/>
	<path class="st3" d="M437,425.5c2.8,0,5.1-2.3,5.1-5.1c0-2.8-2.3-5.1-5.1-5.1c-2.8,0-5.1,2.3-5.1,5.1
		C431.9,423.2,434.2,425.5,437,425.5z"/>
	<g class="st4">
		<path class="st5" d="M468.3,387.3c-0.2-0.2-0.5-0.4-0.8-0.4h-38.6l-1.1-5.3c-0.1-0.5-0.5-0.8-1-0.8h-6.1c-0.6,0-1,0.5-1,1
			s0.5,1,1,1h5.3l4.9,24.7c0.7,3.3,3.6,5.7,7,5.7h23.4c0.6,0,1-0.5,1-1s-0.5-1-1-1h-23.4c-1.7,0-3.2-0.8-4.1-2.1l29.7-4
			c0.4-0.1,0.8-0.4,0.9-0.8l4.1-16.2C468.5,387.9,468.5,387.5,468.3,387.3z"/>
		<path class="st5" d="M458.1,425.4c2.8-0.5,4.7-3.1,4.2-5.9c-0.5-2.8-3.1-4.7-5.9-4.2c-2.8,0.5-4.7,3.1-4.2,5.9
			C452.7,424,455.3,425.9,458.1,425.4z"/>
		<path class="st5" d="M437,425.5c2.8,0,5.1-2.3,5.1-5.1c0-2.8-2.3-5.1-5.1-5.1c-2.8,0-5.1,2.3-5.1,5.1
			C431.9,423.2,434.2,425.5,437,425.5z"/>
	</g>
	<path class="st6" d="M1322.7,1058H272.2c-0.4,0-0.8-0.3-0.8-0.8s0.4-0.8,0.8-0.8h1050.5c0.4,0,0.8,0.3,0.8,0.8
		S1323.2,1058,1322.7,1058z"/>
	<path class="st2" d="M688.7,310.7c24.9,0,45-20.1,45-45s-20.1-45-45-45c-24.9,0-45,20.1-45,45S663.8,310.7,688.7,310.7z"/>
	<path class="st3" d="M675.9,259h4.4l8.6-12.9l0.7-7.2c0.1-1.1,1.3-1.8,2.3-1.3c1.9,0.9,3.8,3.4,3.8,10.5c0,8,0.1,8.5,0.1,8.5
		l13.4,0.1c1.7,0,3,1.3,3.1,3c0.1,5.1,0.3,15.3,0.4,21c0.1,3.9-2.3,7.5-5.9,8.4c-0.5,0.1-1,0.2-1.5,0.2c-3.6,0-21.8-2.9-21.8-2.9
		H676L675.9,259L675.9,259z"/>
	<path class="st3" d="M663.4,259l2.7,27.8h7.5V259H663.4z"/>
	<g class="st4">
		<g class="st4">
			<path class="st5" d="M675.9,259h4.4l8.6-12.9l0.7-7.2c0.1-1.1,1.3-1.8,2.3-1.3c1.9,0.9,3.8,3.4,3.8,10.5c0,8,0.1,8.5,0.1,8.5
				l13.4,0.1c1.7,0,3,1.3,3.1,3c0.1,5.1,0.3,15.3,0.4,21c0.1,3.9-2.3,7.5-5.9,8.4c-0.5,0.1-1,0.2-1.5,0.2c-3.6,0-21.8-2.9-21.8-2.9
				H676L675.9,259L675.9,259z"/>
		</g>
		<g class="st4">
			<path class="st5" d="M663.4,259l2.7,27.8h7.5V259H663.4z"/>
		</g>
	</g>
	<path class="st7" d="M893.4,1056.5h-64.3c-7.8,0-14.1-6.3-14.1-14.1V339.8c0-7.8,6.3-14.1,14.1-14.1h64.3
		c21.1,0,38.3,17.1,38.3,38.3v654.2C931.7,1039.3,914.6,1056.5,893.4,1056.5z"/>
	<path class="st8" d="M868.8,1056.5h-307c-22.7,0-41.2-18.4-41.2-41.2V366.9c0-22.7,18.4-41.2,41.2-41.2h307
		c22.7,0,41.2,18.4,41.2,41.2v648.4C909.9,1038,891.5,1056.5,868.8,1056.5z"/>
	<path class="st3" d="M868.3,342.5h-79.5c-5.4,0-10.1,3.8-11.1,9.2c-1,5.3-5.7,9.2-11.1,9.2H663.9c-5.4,0-10.1-3.8-11.1-9.2
		c-1-5.3-5.7-9.2-11.1-9.2h-79.5c-14.1,0-25.5,11.4-25.5,25.5v646.1c0,14.1,11.4,25.5,25.5,25.5h306c14.1,0,25.5-11.4,25.5-25.5V368
		C893.7,353.9,882.3,342.5,868.3,342.5z"/>
	<path class="st9" d="M868.3,342.5h-79.5c-5.4,0-10.1,3.8-11.1,9.2c-1,5.3-5.7,9.2-11.1,9.2H663.9c-5.4,0-10.1-3.8-11.1-9.2
		c-1-5.3-5.7-9.2-11.1-9.2h-79.5c-14.1,0-25.5,11.4-25.5,25.5v646.1c0,14.1,11.4,25.5,25.5,25.5h306c14.1,0,25.5-11.4,25.5-25.5V368
		C893.7,353.9,882.3,342.5,868.3,342.5z"/>
	<path class="st10" d="M756.3,348.3h-82c-1.6,0-2.9-1.3-2.9-2.9s1.3-2.9,2.9-2.9h82c1.6,0,2.9,1.3,2.9,2.9S757.9,348.3,756.3,348.3z
		"/>
	<path class="st3" d="M868.3,342.5l-33.8,84.1h-65.1l33.6-84.1H868.3z"/>
	<path class="st11" d="M803.2,342.5l-33.8,84.1h-65.1l33.6-84.1H803.2z"/>
	<path class="st3" d="M738.1,342.5l-33.8,84.1h-65l33.5-84.1H738.1z"/>
	<path class="st11" d="M673,342.5l-33.7,84.1h-65.1l33.5-84.1H673z"/>
	<path class="st3" d="M607.9,342.5l-33.8,84.1h-65.3l26.4-65.8c4.5-11.1,15.2-18.4,27.2-18.4h45.5V342.5z"/>
	<path class="st3" d="M868.3,342.5l-33.8,84.1h-65.1l33.6-84.1H868.3z"/>
	<path class="st3" d="M738.1,342.5l-33.8,84.1h-65l33.5-84.1H738.1z"/>
	<path class="st3" d="M607.9,342.5l-33.8,84.1h-65.3l26.4-65.8c4.5-11.1,15.2-18.4,27.2-18.4h45.5V342.5z"/>
	<path class="st7" d="M834.5,426.6h59.2V368c0-14.1-11.4-25.5-25.5-25.5L834.5,426.6z"/>
	<path class="st3" d="M508.9,426.6h65.3v8.5c0,18-14.6,32.6-32.6,32.6S509,453.1,509,435.1v-8.5H508.9z"/>
	<path class="st7" d="M574,426.6h65.3v8.5c0,18-14.6,32.6-32.6,32.6s-32.6-14.6-32.6-32.6L574,426.6L574,426.6z"/>
	<path class="st3" d="M639.1,426.6h65.3v8.5c0,18-14.6,32.6-32.6,32.6s-32.6-14.6-32.6-32.6v-8.5H639.1z"/>
	<path class="st7" d="M704.1,426.6h65.3v8.5c0,18-14.6,32.6-32.6,32.6s-32.6-14.6-32.6-32.6v-8.5H704.1z"/>
	<path class="st3" d="M769.2,426.6h65.3v8.5c0,18-14.6,32.6-32.6,32.6s-32.6-14.6-32.6-32.6L769.2,426.6L769.2,426.6z"/>
	<path class="st12" d="M508.9,426.6h65.3v8.5c0,18-14.6,32.6-32.6,32.6S509,453.1,509,435.1v-8.5H508.9z"/>
	<path class="st12" d="M639.1,426.6h65.3v8.5c0,18-14.6,32.6-32.6,32.6s-32.6-14.6-32.6-32.6v-8.5H639.1z"/>
	<path class="st12" d="M769.2,426.6h65.3v8.5c0,18-14.6,32.6-32.6,32.6s-32.6-14.6-32.6-32.6L769.2,426.6L769.2,426.6z"/>
	<path class="st3" d="M799.9,515.7H639c-13,0-23.5,10.5-23.5,23.5v160.9c0,13,10.5,23.5,23.5,23.5h160.9c13,0,23.5-10.5,23.5-23.5
		V539.2C823.4,526.3,812.9,515.7,799.9,515.7z"/>
	<g class="st13">
		<path class="st14" d="M799.9,515.7H639c-13,0-23.5,10.5-23.5,23.5v160.9c0,13,10.5,23.5,23.5,23.5h160.9c13,0,23.5-10.5,23.5-23.5
			V539.2C823.4,526.3,812.9,515.7,799.9,515.7z"/>
	</g>
	<path class="st2" d="M791.5,515.7H630.6c-13,0-23.5,10.5-23.5,23.5v160.9c0,13,10.5,23.5,23.5,23.5h160.9c13,0,23.5-10.5,23.5-23.5
		V539.2C815,526.3,804.5,515.7,791.5,515.7z"/>
	<path class="st2" d="M843.7,828.3H586.9c-3.9,0-7.1-3.2-7.1-7.1c0-3.9,3.2-7.1,7.1-7.1h256.8c3.9,0,7.1,3.2,7.1,7.1
		C850.8,825.1,847.6,828.3,843.7,828.3z"/>
	<path class="st2" d="M843.7,785.9H586.9c-3.9,0-7.1-3.2-7.1-7.1c0-3.9,3.2-7.1,7.1-7.1h256.8c3.9,0,7.1,3.2,7.1,7.1
		C850.8,782.7,847.6,785.9,843.7,785.9z"/>
	<path class="st2" d="M797.7,870.7H632.8c-3.9,0-7.1-3.2-7.1-7.1c0-3.9,3.2-7.1,7.1-7.1h164.9c3.9,0,7.1,3.2,7.1,7.1
		C804.8,867.5,801.6,870.7,797.7,870.7z"/>
	<path class="st6" d="M1170.4,719.9h-115.1v62.8h115.1V719.9z"/>
	<path class="st8" d="M1170.4,719.9h-24.5v62.8h24.5V719.9z"/>
	<path class="st15" d="M1198.2,738.1l-12.7-62.3"/>
	<path class="st15" d="M1201.7,654.8l-1.8,81"/>
	<path class="st15" d="M1220.1,669.8l-19.3,24.3"/>
	<path class="st16" d="M1207.8,753.6l-1.9-2.9c-1.9-2.9-2.9-6.3-2.9-9.8V734h-7.4v6.9c0,3.5-1,6.9-2.9,9.8l-1.9,2.9
		c-4,6.1-5.3,13.5-3.5,20.6l2.2,8.5h19.8l2.2-8.5C1213,767.1,1211.8,759.7,1207.8,753.6z"/>
	<path class="st8" d="M1207.8,753.6l-1.9-2.9c-1.9-2.9-2.9-6.3-2.9-9.8V734h-2.1v6.9c0,3.5,0.9,6.4,2.4,9.7l2.2,4.2
		c5.4,12.3-4.8,27.9-4.8,27.9h8.5l2.2-8.5C1213,767.1,1211.8,759.7,1207.8,753.6z"/>
	<path class="st15" d="M1193.2,713.8l23-19.1"/>
	<path class="st15" d="M1175.9,709.5l20.3,19.2"/>
	<path class="st3" d="M1208.6,684.3l3.2-14c1.1-5,7.1-7.1,11.1-3.9c4,3.2,3.3,9.4-1.3,11.6L1208.6,684.3z"/>
	<path class="st17" d="M1208.6,684.3l3.2-14c1.1-5,7.1-7.1,11.1-3.9c4,3.2,3.3,9.4-1.3,11.6L1208.6,684.3z"/>
	<path class="st3" d="M1225.5,672c0,2.5-1.4,4.9-3.9,6.1l-12.9,6.2l14.2-17.8C1224.7,667.9,1225.5,669.9,1225.5,672z"/>
	<path class="st3" d="M1201.3,678.1l-9.1-18.9c-3.3-6.7,1.6-14.5,9.1-14.5s12.4,7.8,9.1,14.5L1201.3,678.1z"/>
	<path class="st17" d="M1201.3,678.1l-9.1-18.9c-3.3-6.7,1.6-14.5,9.1-14.5s12.4,7.8,9.1,14.5L1201.3,678.1z"/>
	<path class="st17" d="M1201.7,644.7l-0.4,33.4l9.1-18.9C1213.6,652.6,1208.9,645,1201.7,644.7z"/>
	<path class="st3" d="M1191.2,703.3l-13.3-15.8c-4.7-5.6-2-14.3,5.2-16.1c7.1-1.8,13.7,4.5,12.3,11.7L1191.2,703.3z"/>
	<path class="st17" d="M1195.3,683c1.5-7.2-5.1-13.5-12.3-11.7l8.1,31.8L1195.3,683z"/>
	<path class="st3" d="M1189.3,722.1l-6-15.1c-2.2-5.4-9.2-6.7-13.1-2.4c-3.9,4.3-2,11.2,3.5,12.9L1189.3,722.1z"/>
	<path class="st17" d="M1189.3,722.1l-6-15.1c-2.2-5.4-9.2-6.7-13.1-2.4c-3.9,4.3-2,11.2,3.5,12.9L1189.3,722.1z"/>
	<path class="st17" d="M1170.4,704.3l18.9,17.8l-6-15.1C1181.1,701.7,1174.4,700.4,1170.4,704.3z"/>
	<path class="st3" d="M1199.4,708.9l6.6-16c2.3-5.7,9.8-7,13.9-2.4s2,11.9-3.9,13.6L1199.4,708.9z"/>
	<path class="st17" d="M1199.4,708.9l6.6-16c2.3-5.7,9.8-7,13.9-2.4s2,11.9-3.9,13.6L1199.4,708.9z"/>
	<path class="st15" d="M1200,728.3l31.4-17.2"/>
	<path class="st3" d="M1205.2,725.4l11.4-15.6c4.1-5.5,12.5-5,15.7,1.1c3.2,6.1-1,13.4-7.8,13.7L1205.2,725.4z"/>
	<path class="st17" d="M1205.2,725.4l11.4-15.6c4.1-5.5,12.5-5,15.7,1.1c3.2,6.1-1,13.4-7.8,13.7L1205.2,725.4z"/>
	<path class="st3" d="M1232.6,719.2c-1.4,3-4.4,5.4-8.1,5.5l-19.3,0.8l27.1-14.5C1233.7,713.7,1233.7,716.7,1232.6,719.2z"/>
	<path class="st17" d="M1206,692.9l-6.6,16l20.5-18.4C1215.8,686,1208.3,687.2,1206,692.9z"/>
	<path class="st6" d="M1218.5,789.5h67.1c1.9,0,3.4-1.5,3.4-3.4c0-1.9-1.5-3.4-3.4-3.4h-67.1V789.5z"/>
	<path class="st6" d="M1276.9,786.2h-67.7v208.5h67.7V786.2z"/>
	<path class="st18" d="M1211.3,786.2H984.2v208.5h227.1V786.2z"/>
	<path class="st6" d="M1200.8,978.8H993.9V815.2l206.9,0.2V978.8z M995.4,977.3h203.9V816.9H995.4V977.3z"/>
	<path class="st18" d="M976.5,789.5h242.1c1.9,0,3.4-1.5,3.4-3.4c0-1.9-1.5-3.4-3.4-3.4H976.5c-1.9,0-3.4,1.5-3.4,3.4
		C973.2,788,974.7,789.5,976.5,789.5z"/>
	<path class="st6" d="M993.9,897.4h206.9v-1.5H993.9V897.4z"/>
	<path class="st6" d="M1089.3,841.5c2.9,0,5.2-2.3,5.2-5.2s-2.3-5.2-5.2-5.2s-5.2,2.3-5.2,5.2S1086.4,841.5,1089.3,841.5z"/>
	<path class="st19" d="M1091.2,836.3c0-2.3-1.5-4.2-3.5-4.9c0.5-0.2,1.1-0.3,1.7-0.3c2.9,0,5.2,2.3,5.2,5.2c0,2.9-2.3,5.2-5.2,5.2
		c-0.6,0-1.1-0.1-1.7-0.3C1089.7,840.5,1091.2,838.6,1091.2,836.3z"/>
	<path class="st6" d="M1089.3,922c2.9,0,5.2-2.3,5.2-5.2s-2.3-5.2-5.2-5.2s-5.2,2.3-5.2,5.2S1086.4,922,1089.3,922z"/>
	<path class="st19" d="M1091.2,916.8c0-2.3-1.5-4.2-3.5-4.9c0.5-0.2,1.1-0.3,1.7-0.3c2.9,0,5.2,2.3,5.2,5.2c0,2.9-2.3,5.2-5.2,5.2
		c-0.6,0-1.1-0.1-1.7-0.3C1089.7,921,1091.2,919.1,1091.2,916.8z"/>
	<path class="st6" d="M1221.9,796.5l-10.6-7H984.2v3.2L1221.9,796.5z"/>
	<path class="st18" d="M1263.6,994.7l5.2,57.7c0.4,2.1-1.2,4.1-3.3,4.1c-1.4,0-2.7-0.9-3.2-2.3l-15.1-59.5H1263.6z"/>
	<path class="st6" d="M1261.7,1028.2l-6.3-1.5l-8.1-32h16.4l5.2,57.7c0.3,1.6-0.6,3.2-2,3.8L1261.7,1028.2z"/>
	<path class="st18" d="M1204.7,994.7l5.2,57.7c0.4,2.1-1.2,4.1-3.3,4.1c-1.4,0-2.7-0.9-3.2-2.3l-15.1-59.5H1204.7z"/>
	<path class="st6" d="M1199.2,1001.1l-9.4-1.8l-1.6-4.6h16.4l5.2,57.7c0.3,1.6-0.6,3.2-2,3.8L1199.2,1001.1z"/>
	<path class="st18" d="M1054.9,994.7l-5.2,57.7c-0.4,2.1,1.2,4.1,3.3,4.1c1.4,0,2.7-0.9,3.2-2.3l15.1-59.5H1054.9z"/>
	<path class="st6" d="M1057.8,1025.4l-5.6-1.4l2.7-29.3h16.4l-15.1,59.5c-0.5,1.4-1.8,2.3-3.2,2.3c-0.1,0-0.1,0-0.2,0L1057.8,1025.4
		z"/>
	<path class="st18" d="M994.4,994.7l-5.2,57.7c-0.4,2.1,1.2,4.1,3.3,4.1c1.4,0,2.7-0.9,3.2-2.3l15.1-59.5H994.4z"/>
	<path class="st6" d="M1000.8,999.7l-7.2-1.3l0.8-3.7h16.4l-15.1,59.5c-0.5,1.4-1.8,2.3-3.2,2.3c-0.1,0-0.1,0-0.2,0L1000.8,999.7z"
		/>
	<path class="st7" d="M834.5,426.6v11.5c0,16.4,13.3,29.6,29.6,29.6c16.4,0,29.6-13.3,29.6-29.6v-11.5H834.5z"/>
	<path class="st20" d="M834.5,426.6v11.5c0,16.4,13.3,29.6,29.6,29.6c16.4,0,29.6-13.3,29.6-29.6v-11.5H834.5z"/>
	<path class="st7" d="M697,998.2H573.4c-3.1,0-5.6-2.5-5.6-5.6v-28.7c0-3.1,2.5-5.6,5.6-5.6H697c3.1,0,5.6,2.5,5.6,5.6v28.7
		C702.6,995.7,700.1,998.2,697,998.2z"/>
	<path class="st11" d="M690.5,998.2H566.9c-3.1,0-5.6-2.5-5.6-5.6v-28.7c0-3.1,2.5-5.6,5.6-5.6h123.6c3.1,0,5.6,2.5,5.6,5.6v28.7
		C696.1,995.7,693.6,998.2,690.5,998.2z"/>
	<path class="st2" d="M587.4,981.6H583l-0.8,2H580l4.2-9.4h2.1l4.2,9.4h-2.3L587.4,981.6z M586.7,980l-1.5-3.6l-1.5,3.6H586.7z"/>
	<path class="st2" d="M591.5,974.3h4.3c1,0,1.9,0.2,2.7,0.6c0.8,0.4,1.4,0.9,1.8,1.6c0.4,0.7,0.6,1.5,0.6,2.5c0,0.9-0.2,1.8-0.6,2.5
		c-0.4,0.7-1,1.3-1.8,1.6c-0.8,0.4-1.7,0.6-2.7,0.6h-4.3V974.3z M595.6,981.9c0.9,0,1.7-0.3,2.2-0.8s0.8-1.2,0.8-2.1
		s-0.3-1.6-0.8-2.1s-1.3-0.8-2.2-0.8h-2v5.8H595.6z"/>
	<path class="st2" d="M602.6,974.3h4.3c1,0,1.9,0.2,2.7,0.6c0.8,0.4,1.4,0.9,1.8,1.6s0.6,1.5,0.6,2.5c0,0.9-0.2,1.8-0.6,2.5
		s-1,1.3-1.8,1.6c-0.8,0.4-1.7,0.6-2.7,0.6h-4.3V974.3z M606.7,981.9c0.9,0,1.7-0.3,2.2-0.8s0.8-1.2,0.8-2.1s-0.3-1.6-0.8-2.1
		s-1.3-0.8-2.2-0.8h-2v5.8H606.7z"/>
	<path class="st2" d="M619.4,976h-3v-1.8h8.2v1.8h-3v7.6h-2.2V976z"/>
	<path class="st2" d="M627.5,983.2c-0.8-0.4-1.4-1-1.8-1.7c-0.4-0.7-0.7-1.6-0.7-2.5s0.2-1.7,0.7-2.5c0.4-0.7,1.1-1.3,1.8-1.7
		c0.7-0.4,1.7-0.6,2.6-0.6c1,0,1.8,0.2,2.6,0.6c0.8,0.4,1.4,1,1.8,1.7s0.7,1.6,0.7,2.5s-0.2,1.7-0.7,2.5c-0.4,0.7-1.1,1.3-1.8,1.7
		c-0.8,0.4-1.7,0.6-2.6,0.6C629.1,983.8,628.2,983.6,627.5,983.2z M631.6,981.6c0.4-0.3,0.8-0.6,1.1-1.1s0.4-1,0.4-1.6
		c0-0.6-0.1-1.1-0.4-1.6s-0.6-0.8-1.1-1.1c-0.4-0.3-0.9-0.4-1.5-0.4c-0.6,0-1.1,0.1-1.5,0.4c-0.4,0.3-0.8,0.6-1.1,1.1
		s-0.4,1-0.4,1.6c0,0.6,0.1,1.1,0.4,1.6s0.6,0.8,1.1,1.1c0.4,0.3,0.9,0.4,1.5,0.4C630.7,982,631.2,981.8,631.6,981.6z"/>
	<path class="st2" d="M642.5,983.2c-0.8-0.4-1.4-1-1.8-1.7c-0.4-0.7-0.7-1.6-0.7-2.5s0.2-1.8,0.7-2.5c0.4-0.7,1-1.3,1.8-1.7
		c0.8-0.4,1.6-0.6,2.6-0.6c0.8,0,1.5,0.1,2.2,0.4c0.7,0.3,1.2,0.7,1.7,1.2l-1.4,1.3c-0.6-0.7-1.4-1.1-2.4-1.1
		c-0.6,0-1.1,0.1-1.6,0.4c-0.5,0.3-0.8,0.6-1.1,1.1s-0.4,1-0.4,1.6c0,0.6,0.1,1.1,0.4,1.6s0.6,0.8,1.1,1.1s1,0.4,1.6,0.4
		c0.9,0,1.7-0.4,2.4-1.1l1.4,1.3c-0.4,0.5-1,1-1.7,1.2c-0.7,0.3-1.4,0.4-2.2,0.4C644.2,983.8,643.3,983.6,642.5,983.2z"/>
	<path class="st2" d="M656.5,981.6h-4.4l-0.8,2h-2.2l4.2-9.4h2.1l4.2,9.4h-2.3L656.5,981.6z M655.8,980l-1.5-3.6l-1.5,3.6H655.8z"/>
	<path class="st2" d="M666.5,983.6l-1.8-2.6h-0.1h-1.9v2.6h-2.2v-9.4h4.1c0.8,0,1.6,0.1,2.2,0.4c0.6,0.3,1.1,0.7,1.4,1.2
		s0.5,1.1,0.5,1.8c0,0.7-0.2,1.3-0.5,1.8s-0.8,0.9-1.4,1.2l2.1,3H666.5z M666,976.4c-0.3-0.3-0.8-0.4-1.5-0.4h-1.8v3.3h1.8
		c0.7,0,1.1-0.1,1.5-0.4c0.3-0.3,0.5-0.7,0.5-1.2C666.5,977.1,666.3,976.7,666,976.4z"/>
	<path class="st2" d="M672.2,976h-3v-1.8h8.2v1.8h-3v7.6h-2.2V976z"/>
	<path class="st3" d="M855.2,998.2H731.6c-3.1,0-5.6-2.5-5.6-5.6v-28.7c0-3.1,2.5-5.6,5.6-5.6h123.6c3.1,0,5.6,2.5,5.6,5.6v28.7
		C860.8,995.7,858.3,998.2,855.2,998.2z"/>
	<path class="st19" d="M855.2,998.2H731.6c-3.1,0-5.6-2.5-5.6-5.6v-28.7c0-3.1,2.5-5.6,5.6-5.6h123.6c3.1,0,5.6,2.5,5.6,5.6v28.7
		C860.8,995.7,858.3,998.2,855.2,998.2z"/>
	<path class="st3" d="M848.7,998.2H725.1c-3.1,0-5.6-2.5-5.6-5.6v-28.7c0-3.1,2.5-5.6,5.6-5.6h123.6c3.1,0,5.6,2.5,5.6,5.6v28.7
		C854.3,995.7,851.8,998.2,848.7,998.2z"/>
	<path class="st2" d="M760.6,979.6c0.3,0.4,0.5,0.9,0.5,1.5c0,0.8-0.3,1.5-1,1.9c-0.6,0.4-1.6,0.7-2.8,0.7h-4.9v-9.4h4.6
		c1.1,0,2,0.2,2.6,0.7c0.6,0.5,0.9,1,0.9,1.8c0,0.5-0.1,0.9-0.3,1.2s-0.5,0.6-0.9,0.8C759.9,978.9,760.3,979.2,760.6,979.6z
		 M754.6,975.9v2.2h2.2c0.5,0,0.9-0.1,1.2-0.3s0.4-0.5,0.4-0.8s-0.1-0.6-0.4-0.8s-0.7-0.3-1.2-0.3H754.6L754.6,975.9z M758.5,981.7
		c0.3-0.2,0.4-0.5,0.4-0.9c0-0.8-0.6-1.2-1.7-1.2h-2.5v2.3h2.5C757.7,982,758.2,981.9,758.5,981.7z"/>
	<path class="st2" d="M763.8,982.7c-0.7-0.7-1.1-1.8-1.1-3.2v-5.3h2.2v5.2c0,1.7,0.7,2.5,2.1,2.5c0.7,0,1.2-0.2,1.6-0.6
		c0.4-0.4,0.5-1,0.5-1.9v-5.2h2.1v5.3c0,1.4-0.4,2.4-1.1,3.2c-0.7,0.7-1.8,1.1-3.1,1.1C765.5,983.8,764.5,983.4,763.8,982.7z"/>
	<path class="st2" d="M777.6,980.3v3.3h-2.2v-3.3l-3.6-6h2.3l2.5,4.2l2.5-4.2h2.1L777.6,980.3z"/>
	<path class="st2" d="M794.6,974.3v9.4h-1.8l-4.7-5.7v5.7H786v-9.4h1.8l4.7,5.7v-5.7H794.6z"/>
	<path class="st2" d="M798.7,983.2c-0.8-0.4-1.4-1-1.8-1.7c-0.4-0.7-0.7-1.6-0.7-2.5s0.2-1.7,0.7-2.5c0.4-0.7,1.1-1.3,1.8-1.7
		c0.7-0.4,1.7-0.6,2.6-0.6c1,0,1.8,0.2,2.6,0.6c0.8,0.4,1.4,1,1.8,1.7c0.4,0.7,0.7,1.6,0.7,2.5s-0.2,1.7-0.7,2.5
		c-0.4,0.7-1.1,1.3-1.8,1.7c-0.8,0.4-1.7,0.6-2.6,0.6C800.4,983.8,799.5,983.6,798.7,983.2z M802.9,981.6c0.4-0.3,0.8-0.6,1.1-1.1
		s0.4-1,0.4-1.6c0-0.6-0.1-1.1-0.4-1.6s-0.6-0.8-1.1-1.1c-0.4-0.3-0.9-0.4-1.5-0.4c-0.6,0-1.1,0.1-1.5,0.4c-0.4,0.3-0.8,0.6-1.1,1.1
		s-0.4,1-0.4,1.6c0,0.6,0.1,1.1,0.4,1.6s0.6,0.8,1.1,1.1c0.4,0.3,0.9,0.4,1.5,0.4C802,982,802.4,981.8,802.9,981.6z"/>
	<path class="st2" d="M822,974.3l-3.1,9.4h-2.3l-2.1-6.4l-2.1,6.4h-2.3l-3.1-9.4h2.3l2.1,6.6l2.2-6.6h2l2.1,6.6l2.2-6.6H822z"/>
	<path class="st12" d="M893.6,365.4c0,0.3,0.1,0.7,0.1,1C893.7,366,893.6,365.7,893.6,365.4z"/>
	<path class="st12" d="M868.3,342.5H562.2c-10.1,0-19.6,5.8-24.2,13.2c3.1-2.1,7.4-1.8,12.5-1.8h324.6c9.3,0,17.5,2.4,18.5,11.4
		C892.3,352.5,881.5,342.5,868.3,342.5z"/>
	<path class="st21" d="M888.7,482.2l-10.2-3.9l-13.4,0.6c-1.1,0.1-1.8,1-1.4,2c0.3,0.7,1,1.2,1.8,1.2l12.5,0.6l6.9,4.2l-6.9-4.2
		l-11.1,0.5c-0.9,0.1-1.5,0.8-1.3,1.6c0.2,0.7,0.9,1.1,1.7,1.1l11,0.5l10,6l-10-6l-8.2,1.2c-0.6,0.1-0.9,0.7-0.7,1.2
		c0.2,0.4,0.7,0.7,1.2,0.7h9.2l9.6,5L888.7,482.2z"/>
	<path class="st21" d="M888.7,482.2l-10.2-3.9l-13.4,0.6c-1.1,0.1-1.8,1-1.4,2c0.3,0.7,1,1.2,1.8,1.2l12.5,0.6l6.9,4.2l-6.9-4.2
		l-11.1,0.5c-0.9,0.1-1.5,0.8-1.3,1.6c0.2,0.7,0.9,1.1,1.7,1.1l11,0.5l10,6l-10-6l-8.2,1.2c-0.6,0.1-0.9,0.7-0.7,1.2
		c0.2,0.4,0.7,0.7,1.2,0.7h9.2l9.6,5L888.7,482.2z"/>
	<path class="st19" d="M888.7,482.2l-10.2-3.9l-13.4,0.6c-1.1,0.1-1.8,1-1.4,2c0.3,0.7,1,1.2,1.8,1.2l12.5,0.6l6.9,4.2l-6.9-4.2
		l-11.1,0.5c-0.9,0.1-1.5,0.8-1.3,1.6c0.2,0.7,0.9,1.1,1.7,1.1l11,0.5l10,6l-10-6l-8.2,1.2c-0.6,0.1-0.9,0.7-0.7,1.2
		c0.2,0.4,0.7,0.7,1.2,0.7h9.2l9.6,5L888.7,482.2z"/>
	<path class="st21" d="M888.8,478.6l13.3,12.6c0.7,0.7,1.7,1.2,2.7,1.6l30.4,8.8l-8.1,18l-23.5-10.8c-0.8-0.4-1.7-0.6-2.5-0.6
		l-1.4-0.1c-5.7,0.1-10.8-1.8-14.7-5.5h-0.1c-0.5-0.5-1.2-0.9-1.9-1.2c-2.6-0.9-9-3.2-9-3.2c-0.4-0.1-0.6-0.5-0.5-0.9
		c0.4-1.6,2.1-2.8,4.2-2.6l4.7,0.5c2.5,0.2,4.4-1.7,3.9-3.8l-2.7-9.2c-0.1-0.6-0.6-1.1-1.1-1.4l-15.3-8.2c-0.7-0.3-1-1.1-0.7-1.6
		c0.3-0.8,1.3-1.1,2.1-0.8c4,1.5,16.3,6.4,19.1,7.6C888.2,478.1,888.5,478.3,888.8,478.6z"/>
	<path class="st19" d="M933.8,501.1l-5.9,8.2c-2.1,2.7-4.7,4-7.9,2.7l-14.6-6.1c-1.2-0.6-2.5-0.8-3.7-0.7
		c-3.4,0.3-10.7,0.4-16.9-2.9c0.1,0.1,0.2,0.1,0.2,0.1h0.1c3.9,3.8,9,5.6,14.7,5.5l1.4,0.1c0.9,0,1.8,0.2,2.5,0.6l23.4,10.9v-0.2
		L933.8,501.1z"/>
	<path class="st3" d="M1107.1,999.5c-1.1,4.2-1.4,5.8-1.2,10l-0.1,28.1c0.2,4.9,1.5,9.7,4,13.9l0.6,1c1.4,2.5,4.1,4,7,4h8
		c3.7,0,6.9-2.5,7.8-6.1c1-4.2,1.2-8.5,0.4-12.7l-6.8-30.1c-0.5-2.6-1.1-5.4-2.4-8.1H1107.1z"/>
	<path class="st21" d="M998.2,933.6l-1.7,52.4c0,4.9-1.3,10.1-3.2,12.8l-23.4,40.8l5.4,7.4l21.2-10.6l18.9-34.1
		c-0.1-5.8,0.5-9.3,1.6-17.1l9.3-57.8L998.2,933.6z"/>
	<path class="st19" d="M996.6,1003.9c2.2-3.2,4.9-10.7,5.5-14.2l2.6-18.7c0.2-1.4,1.3-2.5,2.7-2.7l12.9-1.8l0.2-2.8h-23.3l-0.7,22.3
		c-0.1,3.6-0.8,9.3-3.2,12.8l-23.4,40.8l3.3,5.5L996.6,1003.9z"/>
	<path class="st3" d="M958.8,1046.4l11.1-6.8c8.1,1.3,16.2-1.7,21.4-8l24.1-29.2c4.4,9.3,5.9,19.7,4.4,29.9l-3.5,24.3h-2.8
		l-0.8-24.9c-0.1-1.8-2.3-2.6-3.5-1.2l-14.7,18c-4.2,5.1-10.5,8.1-17.1,8.1h-22.9c-1.8,0-3-1.8-2.3-3.5
		C953.6,1050,955.9,1047.7,958.8,1046.4z"/>
	<path class="st21" d="M1106,986.9c1.2,10.1,1.7,20.2,1.6,30.4l-0.2,12.1c0.2,5.3,4.6,9.5,9.9,9.5h1.6c6,0,10.6-5.3,9.8-11.3
		l-2.8-14.4c-1.4-7.3-1.9-14.8-1.5-22.2l2.7-48.9l-25.2,0.4L1106,986.9z"/>
	<path class="st11" d="M1011.6,602l-2.7,33l-3.2,36.1c-1.7,19.3-2.8,38.6-3.3,57.9l-6.3,234.7h25.4l47.3-309.7
		c0.3-2.1,2.1-3.6,4.2-3.6c2.2,0,4.1,1.7,4.3,3.9l24.7,309.4l25.1-0.2l12.4-223.2c2.6-47.6-1-95.3-10.7-142l-1.4-6.6L1011.6,602z"/>
	<path class="st19" d="M1103.8,963.8c0,0,3,31.4,3.2,35.6v0.1c0.4,5.9,0.5,11.8,0.4,17.8l-0.2,12.1c0.2,5.2,4.3,9.3,9.4,9.5
		c-4.6-3.6-4.2-9.4-4.4-13.8l-0.8-53.2c0-1.7,1.2-3.2,2.9-3.5l11.2-2l0.1-2.5L1103.8,963.8z"/>
	<path class="st20" d="M1073.1,650.5c1.1,0,2.1,0.4,2.9,1.1c0.8,0.7,1.3,1.7,1.4,2.8l24.7,309.4l9-0.1l-15.2-291.6
		C1095.2,660,1085.2,650.5,1073.1,650.5z"/>
	<path class="st3" d="M1132.8,488.9c0,0,2.7-13.4,5.9-27.7c2.2-10.2-4.2-20.2-14.4-22.4l-22.5-4.9l-8.2-1.7l-46.5,0.4l-5.4,1.5
		l-20.9,5.8c-6.4,2-11,5.9-14,11.1l-0.1,0.3c-0.9,1.5-24.9,63-24.9,63l-48.2-13l-6.8,18.5l58,26.8c6.8,3.1,14.8,0.3,18.1-6.3
		l9.5-18.9l4,12.4c6.7,23.1-2.9,53.9-6.9,65c-0.7,2,0.8,4.1,2.9,4.1h40.3l36.8-0.1h38.6c2.3,0,4-2,3.6-4.3c-0.1-0.6-6-19.6-7.6-42.3
		c-0.6-8.1,0.2-16.3,1.8-24.3L1132.8,488.9z"/>
	<path class="st22" d="M1097.2,442.9l5.4-7.7l0.7-1l-1.5-0.3l-3.2-0.7l-17.5,2.1l-36.6-2l-2.7,0.8l-1.5,0.4l5.5,8.2
		c5.9,8.5,15.5,13.9,25.9,13.9c0.6,0,1.2,0,1.8-0.1C1083.1,455.9,1091.8,450.8,1097.2,442.9z"/>
	<path class="st20" d="M1011.6,602.4l-2.7,32.6l-2,22.5c-2.5,28.4-4.1,56.8-4.9,85.3l-5.9,221h10.1l15.9-307.8l2.8-53.4h-12.4
		l-0.5-0.1L1011.6,602.4z"/>
	<path class="st21" d="M1137.1,600.4l-12.2-0.1c-0.2,0-0.5,0-0.7,0.1l-11,2.2c-1.9,0.4-3.6,1.5-4.7,3.2l-5.6,8.7
		c-0.4,0.6-0.3,1.4,0.3,1.9c0.6,0.5,1.5,0.4,2-0.2l6.4-7.5l8-2.2l-7.4,3.4l-5.9,9.3c-0.4,0.7-0.3,1.6,0.2,2.1c0.7,0.7,1.8,0.7,2.5,0
		c2.3-2.4,7-7.3,7-7.3l5.5-2.3l-4.9,3.6l-5.7,7.1c-0.5,0.7-0.4,1.7,0.2,2.2s1.5,0.5,2.1-0.1l6.8-6.2l6.2-3l-7.6,6.8
		c-0.6,0.6-0.7,1.5-0.2,2.1c0.5,0.6,1.2,0.7,1.9,0.4l10.3-5.6l7.5,0.4c5.7,0.3,10.8-3.4,12.2-8.9l0.2-0.7l42.6-60.4l-22.5-15.9
		L1137.1,600.4z"/>
	<path class="st3" d="M1134.5,444.8l68.5,69.8c5.3,5.4,6,13.9,1.5,20.1l-37.1,51.4l-16.8-13.5l22.7-44.1l-48-41.6L1134.5,444.8z"/>
	<path class="st19" d="M1138.4,489.4l-2.2-12c-0.1-0.7-1.1-0.7-1.3,0l-2.6,15.7l40.9,35.5l1.9-3.4c0.8-1.4,0.5-3.2-0.7-4.3
		L1138.4,489.4z"/>
	<path class="st19" d="M1151.1,573.1l9.2,11.8c0.6,0.7,0.6,1.8,0.1,2.5l-13.4,20.4c0,0-4.4,11.6-15.3,11.3l6.5,0.3
		c5.7,0.3,10.8-3.4,12.2-8.9l0.2-0.7l16.7-23.7L1151.1,573.1z"/>
	<path class="st22" d="M1150.5,572.7l2.1-3.9l17.4,13.7l-2.6,3.7L1150.5,572.7z"/>
	<path class="st7" d="M1096.3,352.5c8.8,0,16-7.2,16-16s-7.2-16-16-16c-8.8,0-16,7.2-16,16S1087.5,352.5,1096.3,352.5z"/>
	<path class="st3" d="M1105.3,349.7c-3.8,2.6-8.7,3.6-13.5,2.2c-8.5-2.5-13.4-11.3-11-19.8c0.2-0.6,0.4-1.1,0.6-1.6
		C1088.7,331.4,1101.2,337.8,1105.3,349.7z"/>
	<path class="st7" d="M1088.4,402.9c-0.7,17.2-5.9,26.8,3.7,27.2c15.3,0.7,28.4-12.8,29.1-30c0.7-17.2-11.1-31.7-26.4-32.4
		C1090.8,382.5,1089.1,385.7,1088.4,402.9z"/>
	<path class="st7" d="M1081.7,403.8c1.3-14.9-10-28.1-25.3-29.4c-15.3-1.3-28.8,9.7-30.1,24.6c-1.3,14.9,10,28.1,25.3,29.4
		C1066.9,429.7,1080.4,418.7,1081.7,403.8z"/>
	<path class="st21" d="M1089.1,391.2l1,34.9c0.1,2.8,2,5.3,4.7,6l4,1.1l-4.7,6.8c-4.8,6.9-12.4,11.4-20.8,11.9c-0.5,0-1.1,0-1.6,0.1
		c-9.1,0.1-17.5-4.6-22.7-12.1l-4.5-6.5l4.5-1.2c2.5-0.7,4.4-2.9,4.7-5.5l4.6-41.4L1089.1,391.2z"/>
	<path class="st21" d="M1064.8,417l1.6,0.1c11.9,0.5,21.9-8.7,22.4-20.6l1.3-30.2c0.2-4-2.9-7.3-6.9-7.5l-28.1-1.2
		c-5.1-0.2-9.5,3.8-9.7,8.9l-1.2,28C1043.7,406.4,1052.9,416.5,1064.8,417z"/>
	<path class="st7" d="M1066.3,387.1c1.3,0,2.3-1,2.3-2.3c0-1.3-1-2.3-2.3-2.3c-1.3,0-2.3,1-2.3,2.3
		C1064,386.1,1065,387.1,1066.3,387.1z"/>
	<path class="st2" d="M1065.3,386.1c0.3,0,0.5-0.2,0.5-0.5s-0.2-0.5-0.5-0.5c-0.3,0-0.5,0.2-0.5,0.5S1065,386.1,1065.3,386.1z"/>
	<path class="st7" d="M1048.3,387.1c1.3,0,2.3-1,2.3-2.3c0-1.3-1-2.3-2.3-2.3c-1.3,0-2.3,1-2.3,2.3
		C1046,386.1,1047,387.1,1048.3,387.1z"/>
	<path class="st2" d="M1047.1,386c0.3,0,0.5-0.2,0.5-0.5s-0.2-0.5-0.5-0.5s-0.5,0.2-0.5,0.5S1046.8,386,1047.1,386z"/>
	<g class="st23">
		<path class="st12" d="M1057.4,397.6l3.1,0.2c0.4,0,0.7-0.3,0.7-0.6c0-0.4-0.3-0.7-0.6-0.7l-3.1-0.2c-0.8-0.1-1.4-0.7-1.3-1.5
			c0.1-0.8,0.7-1.4,1.5-1.3c0.4,0,0.7-0.3,0.7-0.6c0-0.4-0.3-0.7-0.6-0.7c-1.5-0.1-2.9,1-3,2.6
			C1054.7,396.2,1055.9,397.5,1057.4,397.6z"/>
	</g>
	<path class="st7" d="M1036.2,380.5c3.4-2.4,2.2-6.9,2.2-6.9c-0.6-1.9-1-4-1.1-6.3c-0.1-7.2,3.8-10,5.8-10.9
		c0.7-0.3,1.2-1.1,1.3-1.9c1.5-22.4,32.2-27.7,48.3-14.4c9.7,8.1,11.9,17.1,11.1,25.6c0,0-0.5,3.7,2.9,5.6l-4.2,1.7
		c-1.7,6.2-4.3,11.9-5.9,16.3c-0.7,1.9-4.2-6-5.8-6.9c-0.2-0.1-1.7,2-2.7,3.4c-0.6,0.9-2,0.7-2.3-0.3c-1.2-3.8-1.7-7.8-1.5-11.7
		l0.2-3.6c-7.8-1.1-10.8-8.6-10.8-8.6c-7.7,8.6-20.7,7.7-26,6.9c-1.2-0.2-2.4,0.7-2.4,2l-0.6,13.5c0,0-2-2-3.9-5.2l-3.6,2.5
		L1036.2,380.5z"/>
	<path class="st21" d="M1087.3,397.7c0,0,10.2,1.7,13.2-8.3c3-9.9-9.4-12.9-12-2.8l-2.3,11L1087.3,397.7z"/>
	<path class="st12" d="M1097.8,383.8c-1-0.8-2-1.2-3-1.1c-1,0.1-1.9,0.7-2.6,1.8c-0.8,1.1-1.3,2.4-1.5,3.8l-0.1,1.1
		c-0.1,0.8,1.3,1.2,1.4,0.2c0.2-1.2,0.2-1.2,0.2-1.2c0-0.3,0.4-2.2,1.2-3.2c0.6-0.7,1.1-1.2,1.7-1.2c0.6-0.1,1.3,0.2,2,0.8
		c0.3,0.2,0.7,0.2,0.9-0.1C1098.1,384.4,1098.1,384,1097.8,383.8z"/>
	<path class="st2" d="M1038.3,385.9c-0.4,5.1,3.5,9.6,8.6,10s9.6-3.5,10-8.6c0.1-1.8-0.2-3.5-1-4.9c2-0.6,3.8-0.2,4.6,0.1
		c-0.4,0.9-0.7,2-0.8,3c-0.4,5.1,3.5,9.6,8.6,10c5.1,0.4,9.6-3.5,10-8.6c0.4-5.1-3.5-9.6-8.6-10c-3.6-0.3-6.9,1.6-8.7,4.5
		c-1-0.4-3.2-1-5.8,0c-1.5-2.3-4.1-3.8-7-4C1043.2,376.9,1038.7,380.7,1038.3,385.9z M1061,385.6c0.3-4.5,4.3-7.8,8.8-7.5
		c4.5,0.3,7.8,4.3,7.5,8.8c-0.3,4.5-4.3,7.8-8.8,7.5C1064,394,1060.6,390,1061,385.6z M1039.5,386c0.3-4.5,4.3-7.8,8.8-7.5
		s7.8,4.3,7.5,8.8c-0.3,4.5-4.3,7.8-8.8,7.5C1042.5,394.4,1039.1,390.4,1039.5,386z"/>
	<path class="st3" d="M1090.3,396.3c1.1,0,2-0.9,2-2c0-1.1-0.9-2-2-2c-1.1,0-2,0.9-2,2C1088.3,395.4,1089.2,396.3,1090.3,396.3z"/>
	<path class="st19" d="M1089.5,396c1.2,0.1,2.3-0.8,2.4-2c0-0.4-0.1-0.8-0.3-1.2c0.5,0.4,0.8,1,0.7,1.7c-0.1,1.1-1.1,2-2.2,1.9
		c-0.4,0-0.8-0.2-1.1-0.5C1089.2,396,1089.3,396,1089.5,396z"/>
	<path class="st7" d="M1050,372.6c9.1,0.3,15.3-2.6,18.9-5c3.9-2.7,5.7-5.4,5.8-5.5c0.2-0.3,0.1-0.6-0.2-0.8
		c-0.3-0.2-0.6-0.1-0.8,0.2c-0.1,0.1-7,10.5-23.6,9.9c-0.3,0-0.6,0.2-0.6,0.6C1049.4,372.3,1049.7,372.5,1050,372.6z"/>
	<path class="st19" d="M1089.3,397.8h-3.3l3.5,7L1089.3,397.8z"/>
	<path class="st19" d="M1054.2,413.4c3.2,1.9,7,2.9,11.1,3c0.9,0,1.7,0,2.6,0c0.3,0,0.7,0,1-0.1c0.1,0,0.1,0,0.2,0
		c0.5-0.1,1-0.1,1.5-0.2c0.2,0,0.4-0.1,0.6-0.1c3.4-0.6,5.9-1.8,7.6-2.8c0.3-0.2,0.7-0.1,0.9,0.2c0.2,0.3,0.1,0.7-0.2,0.9
		c-2.1,1.2-5.4,2.7-9.9,3.2c-2.3,1.7-6.3,3.9-11.3,3.8c-1.6,0-3.3-0.2-4.8-0.5L1054.2,413.4z"/>
	<path class="st2" d="M1055.6,401.3c-0.3,0-0.5,0.3-0.4,0.6c1.2,2.3,3.4,3.8,6,3.8c2.6,0,4.8-1.5,6-3.8c0.1-0.3,0-0.6-0.4-0.6
		H1055.6z"/>
	<path class="st22" d="M933.8,501.1l-6.8,18.6l4.2,1.9l7-19.3L933.8,501.1z"/>
	<path class="st19" d="M1016,480.3l-2.2,7.9l-2.8,4.7c-4.9,8.2-6.6,18-4.7,27.4l-9.1,19c-2.3,4.5-8.9,7.9-14.6,6l2.4,1.1
		c6.8,3.1,14.8,0.3,18.1-6.3l9.5-18.9l-0.8-2.6c-2.5-8.2-1.5-17.1,2.7-24.7l2.4-4.2v-9.3C1017,479.9,1016.2,479.8,1016,480.3z"/>
	<path d="M972.7,540.7l1.3,0.6L972.7,540.7z"/>
	<path class="st2" d="M1031.2,447.2c0.9,0,1.7-0.8,1.7-1.7s-0.8-1.7-1.7-1.7c-0.9,0-1.7,0.8-1.7,1.7S1030.3,447.2,1031.2,447.2z"/>
	<path class="st2" d="M999.8,485c0.9,0,1.7-0.8,1.7-1.7c0-0.9-0.8-1.7-1.7-1.7c-0.9,0-1.7,0.8-1.7,1.7
		C998.1,484.2,998.9,485,999.8,485z"/>
	<path class="st2" d="M989.1,541.1c0.9,0,1.7-0.8,1.7-1.7c0-0.9-0.8-1.7-1.7-1.7c-0.9,0-1.7,0.8-1.7,1.7
		C987.4,540.3,988.2,541.1,989.1,541.1z"/>
	<path class="st2" d="M943.2,512.1c0.9,0,1.7-0.8,1.7-1.7s-0.8-1.7-1.7-1.7c-0.9,0-1.7,0.8-1.7,1.7S942.3,512.1,943.2,512.1z"/>
	<path class="st2" d="M1122,463.4c0.9,0,1.7-0.8,1.7-1.7c0-0.9-0.8-1.7-1.7-1.7s-1.7,0.8-1.7,1.7
		C1120.3,462.6,1121.1,463.4,1122,463.4z"/>
	<path class="st2" d="M1168,489.8c0.9,0,1.7-0.8,1.7-1.7s-0.8-1.7-1.7-1.7s-1.7,0.8-1.7,1.7S1167.1,489.8,1168,489.8z"/>
	<path class="st2" d="M1121.3,512.1c0.9,0,1.7-0.8,1.7-1.7s-0.8-1.7-1.7-1.7c-0.9,0-1.7,0.8-1.7,1.7S1120.4,512.1,1121.3,512.1z"/>
	<path class="st2" d="M1086,512.6c0.9,0,1.7-0.8,1.7-1.7s-0.8-1.7-1.7-1.7s-1.7,0.8-1.7,1.7S1085.1,512.6,1086,512.6z"/>
	<path class="st2" d="M1193.3,542.7c0.9,0,1.7-0.8,1.7-1.7s-0.8-1.7-1.7-1.7c-0.9,0-1.7,0.8-1.7,1.7S1192.4,542.7,1193.3,542.7z"/>
	<path class="st2" d="M1060,480c0.9,0,1.7-0.8,1.7-1.7c0-0.9-0.8-1.7-1.7-1.7s-1.7,0.8-1.7,1.7C1058.3,479.2,1059.1,480,1060,480z"
		/>
	<path class="st2" d="M1089,553.9c0.9,0,1.7-0.8,1.7-1.7c0-0.9-0.8-1.7-1.7-1.7s-1.7,0.8-1.7,1.7
		C1087.3,553.1,1088.1,553.9,1089,553.9z"/>
	<path class="st2" d="M1045.8,533.2c0.9,0,1.7-0.8,1.7-1.7s-0.8-1.7-1.7-1.7c-0.9,0-1.7,0.8-1.7,1.7S1044.9,533.2,1045.8,533.2z"/>
	<path class="st2" d="M1024.9,498.4c0.9,0,1.7-0.8,1.7-1.7c0-0.9-0.8-1.7-1.7-1.7c-0.9,0-1.7,0.8-1.7,1.7
		C1023.2,497.6,1024,498.4,1024.9,498.4z"/>
	<path class="st2" d="M1112.3,593.5c0.9,0,1.7-0.8,1.7-1.7c0-0.9-0.8-1.7-1.7-1.7c-0.9,0-1.7,0.8-1.7,1.7
		C1110.6,592.7,1111.4,593.5,1112.3,593.5z"/>
	<path class="st2" d="M1036.2,587.9c0.9,0,1.7-0.8,1.7-1.7c0-0.9-0.8-1.7-1.7-1.7c-0.9,0-1.7,0.8-1.7,1.7
		C1034.5,587.1,1035.3,587.9,1036.2,587.9z"/>
	<path class="st22" d="M1076.6,581.8l2.7,4.7c0.2,0.4,0.1,0.9-0.3,1.1c-0.4,0.2-0.9,0.1-1.1-0.3l-2.7-4.7c-0.2-0.4-0.1-0.9,0.3-1.1
		C1075.9,581.2,1076.4,581.4,1076.6,581.8z"/>
	<path class="st22" d="M1020.7,450.8l2.7,4.7c0.2,0.4,0.1,0.9-0.3,1.1c-0.4,0.2-0.9,0.1-1.1-0.3l-2.7-4.7c-0.2-0.4-0.1-0.9,0.3-1.1
		C1020,450.3,1020.5,450.4,1020.7,450.8z"/>
	<path class="st22" d="M1051.3,507.9h5.5c0.4,0,0.8,0.4,0.8,0.8c0,0.4-0.4,0.8-0.8,0.8h-5.5c-0.4,0-0.8-0.4-0.8-0.8
		C1050.4,508.3,1050.8,507.9,1051.3,507.9z"/>
	<path class="st22" d="M1096.5,485.3l3.2-4.4c0.3-0.4,0.8-0.4,1.1-0.2c0.4,0.3,0.4,0.8,0.2,1.1l-3.2,4.4c-0.3,0.4-0.8,0.4-1.1,0.2
		C1096.3,486.1,1096.2,485.6,1096.5,485.3z"/>
	<path class="st22" d="M1108,440.3l5.4,0.5c0.4,0,0.8,0.4,0.7,0.9c0,0.4-0.4,0.8-0.9,0.7l-5.4-0.5c-0.4,0-0.8-0.4-0.7-0.9
		S1107.6,440.2,1108,440.3z"/>
	<path class="st22" d="M1034,562.8l3.2-4.4c0.3-0.4,0.8-0.4,1.1-0.2c0.4,0.3,0.4,0.8,0.2,1.1l-3.2,4.4c-0.3,0.4-0.8,0.4-1.1,0.2
		C1033.8,563.7,1033.7,563.1,1034,562.8z"/>
	<path class="st22" d="M1188.6,520.3l3.2-4.4c0.3-0.4,0.8-0.4,1.1-0.2c0.4,0.3,0.4,0.8,0.2,1.1l-3.2,4.4c-0.3,0.4-0.8,0.4-1.1,0.2
		C1188.4,521.1,1188.3,520.6,1188.6,520.3z"/>
	<path class="st22" d="M1146.1,465.2l4.7,2.7c0.4,0.2,0.5,0.7,0.3,1.1c-0.2,0.4-0.7,0.5-1.1,0.3l-4.7-2.7c-0.4-0.2-0.5-0.7-0.3-1.1
		S1145.7,465,1146.1,465.2z"/>
	<path class="st22" d="M1162.9,561.2l4.7,2.7c0.4,0.2,0.5,0.7,0.3,1.1c-0.2,0.4-0.7,0.5-1.1,0.3l-4.7-2.7c-0.4-0.2-0.5-0.7-0.3-1.1
		C1162,561.1,1162.5,560.9,1162.9,561.2z"/>
	<path class="st22" d="M997.9,502.9l4.7,2.7c0.4,0.2,0.5,0.7,0.3,1.1c-0.2,0.4-0.7,0.5-1.1,0.3l-4.7-2.7c-0.4-0.2-0.5-0.7-0.3-1.1
		C997,502.8,997.5,502.6,997.9,502.9z"/>
	<path class="st22" d="M955.3,524.8l5.4,0.4c0.4,0,0.8,0.4,0.8,0.9c0,0.4-0.4,0.8-0.9,0.8l-5.4-0.4c-0.4,0-0.8-0.4-0.8-0.9
		S954.8,524.7,955.3,524.8z"/>
	<path class="st22" d="M1114.8,553.2l5.4,1c0.4,0.1,0.7,0.5,0.7,0.9c-0.1,0.4-0.5,0.7-0.9,0.7l-5.4-1c-0.4-0.1-0.7-0.5-0.7-0.9
		C1114,553.4,1114.4,553.1,1114.8,553.2z"/>
	<g class="st24">
		<path class="st19" d="M1203,514.7l-3.7-3.8c4.1,6.5,4,15-0.5,21.4l-35.3,50.7l3.9,3.2l36.7-50.7
			C1209.5,527.8,1208,519.9,1203,514.7z"/>
	</g>
	<path class="st25" d="M648.4,601.3h125.4c5.4,0,9.9,4.5,9.9,9.9v73.6c0,5.4-4.5,9.9-9.9,9.9H648.4c-5.4,0-9.9-4.5-9.9-9.9v-73.6
		C638.5,605.7,642.9,601.3,648.4,601.3z"/>
	<path class="st26" d="M745.6,626.3c3.4,0,6.2-4.1,6.2-9.2c0-5.1-2.8-9.2-6.2-9.2c-3.4,0-6.2,4.1-6.2,9.2
		C739.4,622.2,742.2,626.3,745.6,626.3z"/>
	<path class="st26" d="M676.5,626.3c3.4,0,6.2-4.1,6.2-9.2c0-5.1-2.8-9.2-6.2-9.2s-6.2,4.1-6.2,9.2
		C670.3,622.2,673.1,626.3,676.5,626.3z"/>
	<path class="st16" d="M679.3,617.1l-5.5-0.1c0-3,1.2-73.9,37.4-73.9s37.2,70.9,37.2,73.9h-5.5c0-0.2-0.2-17.8-4.5-35
		c-5.5-22.2-14.6-33.4-27.2-33.4c-12.6,0-21.8,11.2-27.3,33.4C679.6,599.4,679.3,616.9,679.3,617.1z"/>
	<path class="st16" d="M708.5,601.3h-5.3v93.4h5.3V601.3z"/>
	<path class="st16" d="M719,601.3h-5.3v93.4h5.3V601.3z"/>
	<path class="st16" d="M648.4,677.8c2.1-8,3.2-18.6,3.2-29.8s-1.1-21.8-3.2-29.8c-1.9-7.2-4.5-11.8-7.6-13.4c-1,1.2-1.8,2.7-2.1,4.3
		c0.6,0.1,2.7,1.3,5,10.3c2,7.6,3.1,17.8,3.1,28.6c0,10.9-1.1,21-3.1,28.6c-2.3,9-4.4,10.1-5,10.3c0.3,1.6,1.1,3.1,2.1,4.3
		C643.9,689.6,646.5,685,648.4,677.8z"/>
	<path class="st16" d="M783.4,686.9c-0.6-0.1-2.7-1.3-5-10.3c-2-7.6-3.1-17.8-3.1-28.6c0-10.9,1.1-21,3.1-28.6
		c2.3-9,4.4-10.1,5-10.3c-0.3-1.6-1.1-3.1-2.1-4.3c-3.1,1.5-5.7,6.1-7.6,13.4c-2.1,8-3.2,18.6-3.2,29.8s1.1,21.8,3.2,29.8
		c1.9,7.2,4.5,11.8,7.6,13.4C782.3,690,783.1,688.5,783.4,686.9z"/>
	<path class="st27" d="M699.4,632.6h23.4c1,0,1.8,0.8,1.8,1.8v13.7c0,1-0.8,1.8-1.8,1.8h-23.4c-1,0-1.8-0.8-1.8-1.8v-13.7
		C697.5,633.4,698.4,632.6,699.4,632.6z"/>
	<path class="st20" d="M566.3,874l-45.7,94l-0.2-109.2L566.3,874z"/>
	<path class="st7" d="M564.3,876.7l-176.4,176.4c-4.6,4.6-12.1,4.6-16.7,0L261.7,943.7c-4.6-4.6-4.6-12.1,0-16.7l176.4-176.4
		c4.6-4.6,12.1-4.6,16.7,0L564.3,860C569,864.6,569,872.1,564.3,876.7z"/>
	<path class="st3" d="M455.3,781.6L420,816.9c-1.4,1.4-3.8,1.4-5.2,0l-6.2-6.2c-1.4-1.4-1.4-3.8,0-5.2l35.3-35.3
		c1.4-1.4,3.8-1.4,5.2,0l6.2,6.2C456.8,777.8,456.8,780.1,455.3,781.6z"/>
	<path class="st3" d="M340.1,925.4l-30.4,30.4l7,7l30.4-30.4L340.1,925.4z"/>
	<path class="st3" d="M321.9,927.6L304,945.5c-1.3,1.3-1.3,3.3,0,4.6l4.7,4.7l20.2-20.2L321.9,927.6z"/>
	<path class="st3" d="M329.8,919.6l-6.9,6.9l7,7l9.2-9.2l-4.7-4.7C333.1,918.4,331.1,918.4,329.8,919.6z"/>
	<path class="st3" d="M322.4,968.6c1.3,1.3,3.3,1.3,4.6,0l7.7-7.7l-7-7l-9.9,9.9L322.4,968.6z"/>
	<path class="st3" d="M335.6,959.9l17.2-17.2c1.3-1.3,1.3-3.3,0-4.6l-4.7-4.7l-19.5,19.5L335.6,959.9z"/>
	<path class="st2" d="M382.8,961l-32.7,32.7c-0.7,0.7-1.9,0.7-2.6,0l-6.9-6.9c-0.7-0.7-0.7-1.9,0-2.6l32.7-32.7
		c0.7-0.7,1.9-0.7,2.6,0l6.9,6.9C383.6,959.1,383.6,960.2,382.8,961z"/>
	<path class="st2" d="M423.5,920.3L390.8,953c-0.7,0.7-1.9,0.7-2.6,0l-6.9-6.9c-0.7-0.7-0.7-1.9,0-2.6l32.7-32.7
		c0.7-0.7,1.9-0.7,2.6,0l6.9,6.9C424.2,918.4,424.2,919.6,423.5,920.3z"/>
	<path class="st2" d="M464.2,879.6l-32.7,32.7c-0.7,0.7-1.9,0.7-2.6,0l-6.9-6.9c-0.7-0.7-0.7-1.9,0-2.6l32.7-32.7
		c0.7-0.7,1.9-0.7,2.6,0l6.9,6.9C464.9,877.7,464.9,878.9,464.2,879.6z"/>
	<path class="st2" d="M504.9,838.9l-32.7,32.7c-0.7,0.7-1.9,0.7-2.6,0l-6.9-6.9c-0.7-0.7-0.7-1.9,0-2.6l32.7-32.7
		c0.7-0.7,1.9-0.7,2.6,0l6.9,6.9C505.6,837,505.6,838.2,504.9,838.9z"/>
	<path class="st2" d="M434.6,958.8l-59.8,59.8c-1.1,1.1-2.8,1.1-3.9,0c-1.1-1.1-1.1-2.8,0-3.9l59.8-59.8c1.1-1.1,2.8-1.1,3.9,0
		C435.7,956,435.7,957.8,434.6,958.8z"/>
	<path class="st9" d="M455.3,781.6L420,816.9c-1.4,1.4-3.8,1.4-5.2,0l-6.2-6.2c-1.4-1.4-1.4-3.8,0-5.2l35.3-35.3
		c1.4-1.4,3.8-1.4,5.2,0l6.2,6.2C456.8,777.8,456.8,780.1,455.3,781.6z"/>
	<path class="st9" d="M434.6,958.8l-59.8,59.8c-1.1,1.1-2.8,1.1-3.9,0c-1.1-1.1-1.1-2.8,0-3.9l59.8-59.8c1.1-1.1,2.8-1.1,3.9,0
		C435.7,956,435.7,957.8,434.6,958.8z"/>
	<path class="st3" d="M535.7,882.9c5.9-5.9,5.9-15.4,0-21.3c-5.9-5.9-15.4-5.9-21.3,0c-5.9,5.9-5.9,15.4,0,21.3
		C520.3,888.8,529.8,888.8,535.7,882.9z"/>
	<path class="st2" d="M521.4,897.2c5.9-5.9,5.9-15.4,0-21.3c-5.9-5.9-15.4-5.9-21.3,0s-5.9,15.4,0,21.3
		C506,903.1,515.5,903.1,521.4,897.2z"/>
</g>
</svg>
